<?xml version="1.0" encoding="UTF-8"?>
<svg width="148px" height="138px" viewBox="0 0 148 138" version="1.1" xmlns="http://www.w3.org/2000/svg" xmlns:xlink="http://www.w3.org/1999/xlink">
    <!-- Generator: Sketch 47.1 (45422) - http://www.bohemiancoding.com/sketch -->
    <title>basket</title>
    <desc>Created with Sketch.</desc>
    <defs></defs>
    <g id="Page-1" stroke="none" stroke-width="1" fill="none" fill-rule="evenodd">
        <g id="basket" fill-rule="nonzero">
            <path d="M143.032669,46.7822887 L4.78323013,46.7822887 C3.4199749,46.7822887 2.31453138,47.8877322 2.31453138,49.2509874 L2.31453138,61.5947699 C2.31453138,62.9580251 3.4199749,64.0634686 4.78323013,64.0634686 L7.41648954,64.0634686 L11.7285565,128.743318 C11.9878117,132.633879 15.2192636,135.656887 19.1184854,135.656887 L128.697992,135.656887 C132.596925,135.656887 135.828377,132.633879 136.087921,128.743318 L140.399987,64.0634686 L143.033247,64.0634686 C144.396502,64.0634686 145.501946,62.9580251 145.501946,61.5947699 L145.501946,49.2509874 C145.501368,47.8874435 144.396213,46.7822887 143.032669,46.7822887 Z M39.34559,118.375996 C39.34559,121.102795 37.1347029,123.313393 34.4081925,123.313393 C31.681682,123.313393 29.470795,121.102506 29.470795,118.375996 L29.470795,81.3446485 C29.470795,78.6175607 31.681682,76.407251 34.4081925,76.407251 C37.1347029,76.407251 39.34559,78.6175607 39.34559,81.3446485 L39.34559,118.375996 Z M59.0954686,118.375996 C59.0954686,121.102795 56.8845816,123.313393 54.1580711,123.313393 C51.431272,123.313393 49.2206736,121.102506 49.2206736,118.375996 L49.2206736,81.3446485 C49.2206736,78.6175607 51.4315607,76.407251 54.1580711,76.407251 C56.8848703,76.407251 59.0954686,78.6175607 59.0954686,81.3446485 L59.0954686,118.375996 Z M78.8453473,118.375996 C78.8453473,121.102795 76.6344603,123.313393 73.9079498,123.313393 C71.1814393,123.313393 68.9705523,121.102506 68.9705523,118.375996 L68.9705523,81.3446485 C68.9705523,78.6175607 71.1814393,76.407251 73.9079498,76.407251 C76.6344603,76.407251 78.8453473,78.6175607 78.8453473,81.3446485 L78.8453473,118.375996 Z M98.5952259,118.375996 C98.5952259,121.102795 96.3843389,123.313393 93.6578285,123.313393 C90.9310293,123.313393 88.720431,121.102506 88.720431,118.375996 L88.720431,81.3446485 C88.720431,78.6175607 90.931318,76.407251 93.6578285,76.407251 C96.3846276,76.407251 98.5952259,78.6175607 98.5952259,81.3446485 L98.5952259,118.375996 Z M118.345393,118.375996 C118.345393,121.102795 116.134506,123.313393 113.407996,123.313393 C110.681197,123.313393 108.470598,121.102506 108.470598,118.375996 L108.470598,81.3446485 C108.470598,78.6175607 110.681485,76.407251 113.407996,76.407251 C116.134795,76.407251 118.345393,78.6175607 118.345393,81.3446485 L118.345393,118.375996 Z" id="Shape" fill="#FB9F9F"></path>
            <g id="Group" transform="translate(31.757322, 46.769874)" fill="#E86365">
                <path d="M0.667192469,0.0124142259 C-0.780941423,5.29452301 1.39299163,11.0991841 6.35290795,13.9634059 C8.22803347,15.0460418 10.3603933,15.6179623 12.5201799,15.6179623 C16.9188577,15.6179623 21.0167071,13.2526192 23.2148912,9.44520502 L28.6604059,0.0127029289 L0.667481172,0.0127029289 L0.667481172,0.0124142259 L0.667192469,0.0124142259 Z" id="Shape"></path>
                <path d="M61.086364,9.44520502 C63.2842594,13.2523305 67.3818201,15.6176736 71.7807866,15.6176736 C73.9402845,15.6176736 76.0729331,15.0454644 77.9477699,13.9634059 C82.9079749,11.0994728 85.0821967,5.29481172 83.6337741,0.0124142259 L55.640272,0.0124142259 L61.086364,9.44520502 Z" id="Shape"></path>
            </g>
            <g id="Group" transform="translate(39.263598, 2.309623)" fill="#707487">
                <path d="M2.54982427,52.0095439 L2.54982427,52.0095439 C4.91141423,53.3727992 7.93095816,52.5638536 9.29450209,50.2025523 L33.9817782,7.44276151 C35.3450335,5.08117155 34.5360879,2.06162762 32.1747866,0.698083682 L32.1747866,0.698083682 C29.8131967,-0.665171548 26.7936527,0.143774059 25.4301088,2.50507531 L0.742832636,45.2648661 C-0.620711297,47.6261674 0.188523013,50.6462887 2.54982427,52.0095439 Z" id="Shape"></path>
                <path d="M66.7388787,52.0095439 L66.7388787,52.0095439 C64.3772887,53.3727992 61.3577448,52.5638536 59.9942008,50.2025523 L35.3069247,7.44276151 C33.9436695,5.08117155 34.7526151,2.06162762 37.1139163,0.698083682 L37.1139163,0.698083682 C39.4755063,-0.665171548 42.4950502,0.143774059 43.8585941,2.50507531 L68.5458703,45.2648661 C69.9094142,47.6261674 69.1001799,50.6462887 66.7388787,52.0095439 Z" id="Shape"></path>
            </g>
            <path d="M139.905728,71.4698536 L140.39941,64.0637573 L7.41648954,64.0637573 L11.7285565,128.743607 C11.9878117,132.634167 15.2192636,135.657176 19.1184854,135.657176 L26.5084142,135.657176 L22.7951172,82.0268536 C22.3998828,76.3183305 26.9241464,71.4698536 32.6465272,71.4698536 L139.905728,71.4698536 Z" id="Shape" fill="#D85F62"></path>
            <path d="M143.032669,44.468046 L108.688569,44.468046 L85.1266569,3.65757741 C84.1583473,1.97963598 82.5944435,0.780075314 80.7233598,0.278887029 C78.8522762,-0.222589958 76.898046,0.0349330544 75.2201046,1.00353138 C74.7399916,1.28068619 74.3046276,1.61153975 73.9076611,1.97934728 C73.5109833,1.61153975 73.0753305,1.28068619 72.5952176,1.00353138 C70.9175649,0.0349330544 68.9633347,-0.222589958 67.092251,0.278887029 C65.2211674,0.780364017 63.6572636,1.98021339 62.688954,3.65757741 L39.1270418,44.468046 L4.78323013,44.468046 C2.14564017,44.468046 0,46.6136862 0,49.2512762 L0,61.5950586 C0,64.2326485 2.14564017,66.3782887 4.78323013,66.3782887 L5.09156485,66.3782887 L9.40478661,128.919715 C9.75498326,133.995402 14.0145063,137.971707 19.1026067,137.971707 L128.713582,137.971707 C133.801393,137.971707 138.061205,133.99569 138.411402,128.919715 L142.724623,66.3782887 L143.032958,66.3782887 C145.670548,66.3782887 147.816188,64.2326485 147.816188,61.5950586 L147.816188,49.2512762 C147.8159,46.6136862 145.670259,44.468046 143.032669,44.468046 Z M77.5349247,5.01159414 C77.9391088,4.77832218 78.3874644,4.65879916 78.8421715,4.65879916 C79.0699582,4.65879916 79.299477,4.68882427 79.5255314,4.74916318 C80.202251,4.93075732 80.7678201,5.36438912 81.1183054,5.97153138 L105.805582,48.7310335 C106.528494,49.9840042 106.098038,51.5912134 104.845644,52.3141255 L104.845644,52.3141255 C104.239079,52.6646109 103.531757,52.7575732 102.855326,52.5765565 C102.178607,52.3949623 101.613038,51.9613305 101.262552,51.3541883 L76.5752762,8.59439749 C76.2250795,7.98783264 76.1318285,7.28108787 76.3131339,6.6040795 C76.4938619,5.92764854 76.9280711,5.36179079 77.5349247,5.01159414 Z M73.9079498,13.2335649 L91.9412008,44.4677573 L55.8746987,44.4677573 L73.9079498,13.2335649 Z M66.6978828,5.97153138 C67.0480795,5.36496653 67.6136485,4.93075732 68.2906569,4.74945188 C68.9676653,4.56843515 69.67441,4.66110879 70.2809749,5.01188285 C70.8875397,5.3620795 71.321749,5.92764854 71.5030544,6.6046569 C71.6846485,7.28137657 71.5913975,7.98812134 71.2412008,8.5949749 L46.5539247,51.3547657 C46.203728,51.9613305 45.638159,52.3955397 44.9611506,52.5768452 C44.284431,52.7578619 43.5773975,52.6651883 42.9708326,52.3144142 L42.9708326,52.3144142 C41.7181506,51.5915021 41.2876946,49.9840042 42.0108954,48.7313222 L66.6978828,5.97153138 Z M143.187126,61.5947699 C143.187126,61.6796485 143.118126,61.7489372 143.032958,61.7489372 L133.157874,61.7489372 C131.879787,61.7489372 130.843343,62.7850921 130.843343,64.0634686 C130.843343,65.3418452 131.879498,66.378 133.157874,66.378 L138.08459,66.378 L133.79331,128.600987 C133.609983,131.259941 131.378598,133.342644 128.713582,133.342644 L19.1026067,133.342644 C16.43759,133.342644 14.206205,131.259941 14.0228787,128.600987 L9.73159833,66.378 L123.282791,66.378 C124.560879,66.378 125.597322,65.3418452 125.597322,64.0634686 C125.597322,62.7850921 124.561167,61.7489372 123.282791,61.7489372 L4.78323013,61.7489372 C4.69806276,61.7489372 4.62906276,61.6793598 4.62906276,61.5947699 L4.62906276,49.2509874 C4.62906276,49.1661088 4.69806276,49.0968201 4.78323013,49.0968201 L37.0934184,49.0968201 C36.7258996,51.9162929 38.0441172,54.8154477 40.6560126,56.3233431 L40.6560126,56.3233431 C41.7732929,56.9685941 43.013272,57.2982929 44.2699958,57.2982929 C44.8999456,57.2982929 45.5339372,57.2151464 46.1589791,57.0476987 C48.0300628,56.5465105 49.5939665,55.3463724 50.5622762,53.6690084 L53.201887,49.0968201 L94.6131464,49.0968201 L97.2527573,53.6690084 C98.2210669,55.3469498 99.7849707,56.5465105 101.656054,57.0476987 C102.280808,57.2151464 102.914799,57.2982929 103.545038,57.2982929 C104.801762,57.2982929 106.041741,56.9685941 107.15931,56.3233431 C109.771205,54.815159 111.089423,51.9162929 110.721904,49.0968201 L143.032381,49.0968201 C143.117548,49.0968201 143.186548,49.1663975 143.186548,49.2509874 L143.186548,61.5947699 L143.187126,61.5947699 Z" id="Shape" fill="#474A4F"></path>
            <path d="M73.9079498,78.7217824 C75.3543515,78.7217824 76.5311046,79.8985356 76.5311046,81.3449372 C76.5311046,82.6230251 77.5672594,83.6594686 78.845636,83.6594686 C80.1237238,83.6594686 81.1601674,82.6233138 81.1601674,81.3449372 C81.1601674,77.346113 77.9070628,74.0930084 73.9082385,74.0930084 C69.9094142,74.0930084 66.6563096,77.346113 66.6563096,81.3449372 L66.6563096,118.375996 C66.6563096,122.37482 69.9094142,125.627925 73.9082385,125.627925 C77.9070628,125.627925 81.1601674,122.37482 81.1601674,118.375996 L81.1601674,91.2197322 C81.1601674,89.9416444 80.1240126,88.9052008 78.845636,88.9052008 C77.5675481,88.9052008 76.5311046,89.9413556 76.5311046,91.2197322 L76.5311046,118.375996 C76.5311046,119.822397 75.3543515,120.999151 73.9079498,120.999151 C72.4615481,120.999151 71.284795,119.822397 71.284795,118.375996 L71.284795,81.3446485 C71.284795,79.8985356 72.4615481,78.7217824 73.9079498,78.7217824 Z" id="Shape" fill="#474A4F"></path>
            <path d="M93.6578285,78.7217824 C95.1042301,78.7217824 96.2809833,79.8985356 96.2809833,81.3449372 C96.2809833,82.6230251 97.3171381,83.6594686 98.5955146,83.6594686 C99.8736025,83.6594686 100.910046,82.6233138 100.910046,81.3449372 C100.910046,77.346113 97.6569414,74.0930084 93.6581172,74.0930084 C89.6592929,74.0930084 86.4061883,77.346113 86.4061883,81.3449372 L86.4061883,118.375996 C86.4061883,122.37482 89.6592929,125.627925 93.6581172,125.627925 C97.6569414,125.627925 100.910046,122.37482 100.910046,118.375996 L100.910046,91.2197322 C100.910046,89.9416444 99.8738912,88.9052008 98.5955146,88.9052008 C97.3174268,88.9052008 96.2809833,89.9413556 96.2809833,91.2197322 L96.2809833,118.375996 C96.2809833,119.822397 95.1042301,120.999151 93.6578285,120.999151 C92.2114268,120.999151 91.0346736,119.822397 91.0346736,118.375996 L91.0346736,81.3446485 C91.0349623,79.8985356 92.2114268,78.7217824 93.6578285,78.7217824 Z" id="Shape" fill="#474A4F"></path>
            <path d="M113.407707,78.7217824 C114.854109,78.7217824 116.030862,79.8985356 116.030862,81.3449372 C116.030862,82.6230251 117.067017,83.6594686 118.345393,83.6594686 C119.623481,83.6594686 120.659925,82.6233138 120.659925,81.3449372 C120.659925,77.346113 117.40682,74.0930084 113.407996,74.0930084 C109.409172,74.0930084 106.156067,77.346113 106.156067,81.3449372 L106.156067,118.375996 C106.156067,122.37482 109.409172,125.627925 113.407996,125.627925 C117.40682,125.627925 120.659925,122.37482 120.659925,118.375996 L120.659925,91.2197322 C120.659925,89.9416444 119.62377,88.9052008 118.345393,88.9052008 C117.067305,88.9052008 116.030862,89.9413556 116.030862,91.2197322 L116.030862,118.375996 C116.030862,119.822397 114.854109,120.999151 113.407707,120.999151 C111.961305,120.999151 110.784552,119.822397 110.784552,118.375996 L110.784552,81.3446485 C110.784841,79.8985356 111.961305,78.7217824 113.407707,78.7217824 Z" id="Shape" fill="#474A4F"></path>
            <path d="M34.4081925,78.7217824 C35.8545941,78.7217824 37.0313473,79.8985356 37.0313473,81.3449372 C37.0313473,82.6230251 38.0675021,83.6594686 39.3458787,83.6594686 C40.6239665,83.6594686 41.66041,82.6233138 41.66041,81.3449372 C41.66041,77.346113 38.4073054,74.0930084 34.4084812,74.0930084 C30.4096569,74.0930084 27.1565523,77.346113 27.1565523,81.3449372 L27.1565523,118.375996 C27.1565523,122.37482 30.4096569,125.627925 34.4084812,125.627925 C38.4073054,125.627925 41.66041,122.37482 41.66041,118.375996 L41.66041,91.2197322 C41.66041,89.9416444 40.6242552,88.9052008 39.3458787,88.9052008 C38.0677908,88.9052008 37.0313473,89.9413556 37.0313473,91.2197322 L37.0313473,118.375996 C37.0313473,119.822397 35.8545941,120.999151 34.4081925,120.999151 C32.9617908,120.999151 31.7850377,119.822397 31.7850377,118.375996 L31.7850377,81.3446485 C31.7850377,79.8985356 32.9617908,78.7217824 34.4081925,78.7217824 Z" id="Shape" fill="#474A4F"></path>
            <path d="M54.1580711,78.7217824 C55.6044728,78.7217824 56.7812259,79.8985356 56.7812259,81.3449372 C56.7812259,82.6230251 57.8173808,83.6594686 59.0957573,83.6594686 C60.3741339,83.6594686 61.4102887,82.6233138 61.4102887,81.3449372 C61.4102887,77.346113 58.1571841,74.0930084 54.1583598,74.0930084 C50.1595356,74.0930084 46.906431,77.346113 46.906431,81.3449372 L46.906431,118.375996 C46.906431,122.37482 50.1595356,125.627925 54.1583598,125.627925 C58.1571841,125.627925 61.4102887,122.37482 61.4102887,118.375996 L61.4102887,91.2197322 C61.4102887,89.9416444 60.3741339,88.9052008 59.0957573,88.9052008 C57.8173808,88.9052008 56.7812259,89.9413556 56.7812259,91.2197322 L56.7812259,118.375996 C56.7812259,119.822397 55.6044728,120.999151 54.1580711,120.999151 C52.7116695,120.999151 51.5349163,119.822397 51.5349163,118.375996 L51.5349163,81.3446485 C51.5349163,79.8985356 52.7116695,78.7217824 54.1580711,78.7217824 Z" id="Shape" fill="#474A4F"></path>
        </g>
    </g>
</svg>