<?xml version="1.0" encoding="UTF-8"?>
<svg width="126px" height="128px" viewBox="0 0 126 128" version="1.1" xmlns="http://www.w3.org/2000/svg" xmlns:xlink="http://www.w3.org/1999/xlink">
    <!-- Generator: Sketch 47.1 (45422) - http://www.bohemiancoding.com/sketch -->
    <title>beer</title>
    <desc>Created with Sketch.</desc>
    <defs></defs>
    <g id="Page-1" stroke="none" stroke-width="1" fill="none" fill-rule="evenodd">
        <g id="onboarding-2" transform="translate(-87.000000, -101.000000)" fill-rule="nonzero">
            <g id="beer" transform="translate(88.295854, 102.072707)">
                <path d="M54.9752536,70.4374788 C54.9752536,71.4915018 55.8417638,72.2580639 56.8045528,72.2580639 C57.7673418,72.2580639 58.633852,71.3956815 58.633852,70.4374788 L56.8045528,68.6168937 C55.8417638,68.6168937 54.9752536,69.4792762 54.9752536,70.4374788 Z M30.9055279,65.6464654 C30.9055279,66.7004884 31.6757591,67.4670505 32.734827,67.4670505 C33.6976161,67.4670505 34.5641262,66.6046681 34.5641262,65.6464654 L32.734827,63.8258804 C31.772038,63.8258804 30.9055279,64.5924425 30.9055279,65.6464654 Z M11.0720738,54.1480333 C12.6125363,55.106236 13.4790464,55.106236 16.0785768,56.0644387 L16.0785768,56.0644387 L16.0785768,56.0644387 C16.1748557,56.0644387 16.2711346,56.0644387 16.4636924,56.0644387 C18.9669439,56.0644387 20.2185696,55.3936968 21.1813587,54.8187752 L21.1813587,110.681991 C21.1813587,112.215116 22.5292633,113.556599 24.0697258,113.556599 C25.6101882,113.556599 26.9580929,112.215116 26.9580929,110.681991 L26.9580929,54.1480333 L27.5357663,54.1480333 C29.0762287,55.106236 29.9427388,55.106236 32.4459903,56.0644387 L32.4459903,56.0644387 C32.4459903,56.0644387 32.4459903,56.0644387 32.5422692,56.0644387 C32.6385481,56.0644387 32.8311059,55.8727981 32.9273848,55.8727981 C35.8157519,55.8727981 36.6822621,55.106236 38.3190034,54.1480333 L42.4589962,54.1480333 L42.4589962,110.681991 C42.4589962,112.215116 43.8069009,113.556599 45.3473633,113.556599 C46.8878258,113.556599 48.2357304,112.215116 48.2357304,110.681991 L48.2357304,56.0644387 L48.3320093,56.0644387 C48.620846,56.0644387 49.0059616,55.8727981 49.3910773,55.8727981 C52.2794444,55.8727981 53.1459545,55.106236 54.7826958,54.1480333 L60.4631511,54.1480333 C61.6184979,55.106236 62.7738448,55.5853373 63.7366338,55.8727981 L63.7366338,110.681991 C63.7366338,112.215116 65.0845385,113.556599 66.6250009,113.556599 C68.1654634,113.556599 69.513368,112.215116 69.513368,110.681991 L69.513368,55.0104157 C69.513368,54.9145955 70.0910414,55.106236 70.3798781,54.1480333 L75.9640545,54.1480333 C77.6007959,55.106236 78.5635849,55.8727981 81.3556731,55.8727981 C82.414741,55.8727981 82.8961355,55.9686184 83.8589245,55.7769779 L83.8589245,116.814488 C83.8589245,117.581051 82.7998566,118.347613 82.0296254,118.347613 L8.66510127,118.347613 C7.02835992,117.38941 5.87301309,115.664645 5.87301309,113.556599 L5.87301309,54.1480333 L11.0720738,54.1480333 Z M10.6869582,74.2702895 C10.6869582,75.2284922 11.5534684,76.0908746 12.5162574,76.0908746 C13.5753253,76.0908746 14.3455566,75.2284922 14.3455566,74.2702895 L12.5162574,72.4497045 C11.5534684,72.4497045 10.6869582,73.2162666 10.6869582,74.2702895 Z M75.1938233,64.9757236 C75.1938233,65.9339262 75.9640545,66.7963087 77.0231224,66.7963087 C78.0821904,66.7963087 78.8524216,65.9339262 78.8524216,64.9757236 L77.0231224,63.1551385 C76.0603334,63.1551385 75.1938233,63.9217006 75.1938233,64.9757236 Z" id="Shape" stroke="#FFBC00" stroke-width="8" fill="#FFBC00"></path>
                <path d="M12.5162574,72.4497045 L14.3455566,74.2702895 C14.3455566,75.2284922 13.4790464,76.0908746 12.5162574,76.0908746 C11.4571895,76.0908746 10.6869582,75.2284922 10.6869582,74.2702895 C10.6869582,73.2162666 11.5534684,72.4497045 12.5162574,72.4497045 Z" id="Shape" fill="#FFFFFF"></path>
                <g id="Group" transform="translate(21.181359, 53.956393)" fill="#FDD835">
                    <path d="M5.77673418,0.191640536 L5.77673418,56.7255985 C5.77673418,58.2587228 4.42882954,59.6002065 2.88836709,59.6002065 C1.34790464,59.6002065 0,58.2587228 0,56.7255985 L0,0.958202678 C0,0.86238241 0.481394515,1.24566348 0.673952321,0.287460803 L5.77673418,0.287460803 L5.77673418,0.191640536 Z" id="Shape"></path>
                    <path d="M22.7218211,0.191640536 C24.0697258,1.14984321 24.9362359,1.62894455 26.765535,1.82058509 L26.765535,1.91640536 C26.8618139,1.91640536 27.0543718,2.10804589 27.0543718,2.10804589 L27.0543718,56.7255985 C27.0543718,58.2587228 25.7064671,59.6002065 24.1660047,59.6002065 C22.6255422,59.6002065 21.2776376,58.2587228 21.2776376,56.7255985 L21.2776376,0.191640536 L22.7218211,0.191640536 L22.7218211,0.191640536 Z" id="Shape"></path>
                </g>
                <g id="Group" transform="translate(30.809249, 63.777970)" fill="#FFFFFF">
                    <path d="M25.9953038,4.83892352 L27.824603,6.65950861 C27.824603,7.71353155 26.9580929,8.4800937 25.9953038,8.4800937 C25.0325148,8.4800937 24.1660047,7.61771129 24.1660047,6.65950861 C24.1660047,5.70130593 25.0325148,4.83892352 25.9953038,4.83892352 Z" id="Shape"></path>
                    <path d="M1.92557806,0.0479101339 L3.75487722,1.86849522 C3.75487722,2.92251817 2.88836709,3.68908031 1.92557806,3.68908031 C0.96278903,3.68908031 0.096278903,2.8266979 0.096278903,1.86849522 C0.096278903,0.814472276 0.96278903,0.0479101339 1.92557806,0.0479101339 Z" id="Shape"></path>
                </g>
                <path d="M18.8321534,7.13860995 C21.0465682,7.13860995 23.0684252,8.28845316 24.4163298,9.82157745 C26.245629,6.65950861 29.6153906,4.64728299 33.5628256,4.64728299 C37.125145,4.64728299 40.3023488,6.46786807 42.2279269,9.15083557 C44.5386205,4.16818165 49.5451235,0.814472276 55.3218577,0.814472276 C61.5799864,0.814472276 66.8753261,4.74310325 68.897183,10.2048585 C70.3413666,8.57591396 72.3632235,7.52189102 74.7701961,7.52189102 C78.81391,7.52189102 82.0873927,10.5881396 82.4725083,14.4209503 C83.0501818,14.32513 83.7241341,13.7502084 84.3018075,13.7502084 C88.5380792,13.7502084 92.0041197,17.1039178 92.0041197,20.9367285 L3.42752895,20.9367285 C3.42752895,17.1039178 6.89356946,13.2711071 11.1298412,13.2711071 L11.2261201,13.2711071 C11.7075146,10.4923193 14.8847184,7.13860995 18.8321534,7.13860995 Z" id="Shape" stroke="#FFFFFF" stroke-width="2" fill="#FFFFFF"></path>
                <path d="M69.3208102,55.0104157 L69.3208102,110.681991 C69.3208102,112.215116 67.9729055,113.556599 66.4324431,113.556599 C64.8919806,113.556599 63.544076,112.215116 63.544076,110.681991 L63.544076,55.9686184 C63.544076,56.0644387 64.506865,56.1602589 65.0845385,56.1602589 L65.0845385,56.1602589 C65.0845385,56.1602589 65.0845385,56.1602589 65.1808174,56.1602589 C65.2770963,56.1602589 65.4696541,56.1602589 65.4696541,56.1602589 L65.4696541,56.1602589 C67.3952321,55.9686184 68.3580212,55.4895171 69.3208102,55.0104157 Z" id="Shape" fill="#FDD835"></path>
                <path d="M78.8524216,64.9757236 C78.8524216,65.9339262 78.0821904,66.7963087 77.0231224,66.7963087 C75.9640545,66.7963087 75.1938233,65.9339262 75.1938233,64.9757236 C75.1938233,63.9217006 76.0603334,63.1551385 77.0231224,63.1551385 L78.8524216,64.9757236 Z" id="Shape" fill="#FFFFFF"></path>
                <g id="Group-6" transform="translate(0.000000, 2.274599)" stroke="#474A4F" fill="#474A4F">
                    <path d="M78.9487005,122.780433 L11.5534684,122.780433 C5.19906076,122.780433 0,117.606138 0,111.282 L0,22.1691514 C0,21.5942298 0.385115612,21.2109487 0.96278903,21.2109487 L89.5393798,21.2109487 C90.1170532,21.2109487 90.5021689,21.5942298 90.5021689,22.1691514 L90.5021689,111.282 C90.5021689,117.606138 85.3031081,122.780433 78.9487005,122.780433 Z M1.92557806,23.127354 L1.92557806,111.282 C1.92557806,116.552115 6.2581287,120.864027 11.5534684,120.864027 L78.9487005,120.864027 C84.2440402,120.864027 88.5765908,116.552115 88.5765908,111.282 L88.5765908,23.127354 L1.92557806,23.127354 Z" id="Shape" stroke-width="2"></path>
                    <path d="M89.5393798,32.7093808 L16.3674135,32.7093808 C15.7897401,32.7093808 15.4046245,32.3260998 15.4046245,31.7511781 C15.4046245,31.1762565 15.7897401,30.7929755 16.3674135,30.7929755 L89.5393798,30.7929755 C90.1170532,30.7929755 90.5021689,31.1762565 90.5021689,31.7511781 C90.5021689,32.3260998 90.1170532,32.7093808 89.5393798,32.7093808 Z" id="Shape"></path>
                    <path d="M8.66510127,32.7093808 L0.96278903,32.7093808 C0.385115612,32.7093808 0,32.3260998 0,31.7511781 C0,31.1762565 0.385115612,30.7929755 0.96278903,30.7929755 L8.66510127,30.7929755 C9.24277469,30.7929755 9.6278903,31.1762565 9.6278903,31.7511781 C9.6278903,32.3260998 9.24277469,32.7093808 8.66510127,32.7093808 Z" id="Shape"></path>
                    <path d="M24.0697258,112.240203 C21.9515899,112.240203 20.2185696,110.515438 20.2185696,108.407392 L20.2185696,49.957029 C20.2185696,49.3821074 20.6036853,48.9988263 21.1813587,48.9988263 C21.7590321,48.9988263 22.1441477,49.3821074 22.1441477,49.957029 L22.1441477,108.407392 C22.1441477,109.461415 23.0106578,110.323798 24.0697258,110.323798 C25.1287937,110.323798 25.9953038,109.461415 25.9953038,108.407392 L25.9953038,40.3750022 C25.9953038,39.3209793 25.1287937,38.4585969 24.0697258,38.4585969 C23.0106578,38.4585969 22.1441477,39.3209793 22.1441477,40.3750022 L22.1441477,42.2914076 C22.1441477,42.8663292 21.7590321,43.2496103 21.1813587,43.2496103 C20.6036853,43.2496103 20.2185696,42.8663292 20.2185696,42.2914076 L20.2185696,40.3750022 C20.2185696,38.2669564 21.9515899,36.5421915 24.0697258,36.5421915 C26.1878616,36.5421915 27.9208819,38.2669564 27.9208819,40.3750022 L27.9208819,108.407392 C27.9208819,110.515438 26.1878616,112.240203 24.0697258,112.240203 Z" id="Shape" stroke-width="2"></path>
                    <path d="M45.2510844,112.240203 C43.1329486,112.240203 41.3999283,110.515438 41.3999283,108.407392 L41.3999283,49.957029 C41.3999283,49.3821074 41.7850439,48.9988263 42.3627173,48.9988263 C42.9403908,48.9988263 43.3255064,49.3821074 43.3255064,49.957029 L43.3255064,108.407392 C43.3255064,109.461415 44.1920165,110.323798 45.2510844,110.323798 C46.3101524,110.323798 47.1766625,109.461415 47.1766625,108.407392 L47.1766625,40.3750022 C47.1766625,39.3209793 46.3101524,38.4585969 45.2510844,38.4585969 C44.1920165,38.4585969 43.3255064,39.3209793 43.3255064,40.3750022 L43.3255064,42.2914076 C43.3255064,42.8663292 42.9403908,43.2496103 42.3627173,43.2496103 C41.7850439,43.2496103 41.3999283,42.8663292 41.3999283,42.2914076 L41.3999283,40.3750022 C41.3999283,38.2669564 43.1329486,36.5421915 45.2510844,36.5421915 C47.3692203,36.5421915 49.1022406,38.2669564 49.1022406,40.3750022 L49.1022406,108.407392 C49.1022406,110.515438 47.3692203,112.240203 45.2510844,112.240203 Z" id="Shape" stroke-width="2"></path>
                    <path d="M66.4324431,112.240203 C64.3143072,112.240203 62.581287,110.515438 62.581287,108.407392 L62.581287,49.957029 C62.581287,49.3821074 62.9664026,48.9988263 63.544076,48.9988263 C64.1217494,48.9988263 64.506865,49.3821074 64.506865,49.957029 L64.506865,108.407392 C64.506865,109.461415 65.3733752,110.323798 66.4324431,110.323798 C67.491511,110.323798 68.3580212,109.461415 68.3580212,108.407392 L68.3580212,40.3750022 C68.3580212,39.3209793 67.491511,38.4585969 66.4324431,38.4585969 C65.3733752,38.4585969 64.506865,39.3209793 64.506865,40.3750022 L64.506865,42.2914076 C64.506865,42.8663292 64.1217494,43.2496103 63.544076,43.2496103 C62.9664026,43.2496103 62.581287,42.8663292 62.581287,42.2914076 L62.581287,40.3750022 C62.581287,38.2669564 64.3143072,36.5421915 66.4324431,36.5421915 C68.550579,36.5421915 70.2835992,38.2669564 70.2835992,40.3750022 L70.2835992,108.407392 C70.2835992,110.515438 68.550579,112.240203 66.4324431,112.240203 Z" id="Shape" stroke-width="2"></path>
                    <path d="M89.5393798,23.127354 C88.9617064,23.127354 88.5765908,22.744073 88.5765908,22.1691514 C88.5765908,17.9530596 84.6291558,14.5035299 80.2003262,15.6533732 C79.9114895,15.7491934 79.6226528,15.6533732 79.430095,15.4617326 C79.2375372,15.2700921 79.0449794,15.0784516 79.0449794,14.7909908 C78.6598638,11.3414611 75.7714967,8.75431388 72.3054562,8.75431388 C70.3798781,8.75431388 68.4543001,9.61669629 67.2026743,11.1498206 C67.0101165,11.4372814 66.6250009,11.5331016 66.3361642,11.4372814 C66.0473275,11.3414611 65.7584908,11.1498206 65.565933,10.8623598 C63.6403549,5.59224505 58.537573,2.04689514 52.9533967,2.04689514 C47.7543359,2.04689514 42.9403908,5.11314371 40.725976,9.90415709 C40.6296971,10.1916179 40.2445815,10.3832584 39.9557448,10.4790787 C39.5706291,10.4790787 39.2817924,10.3832584 39.0892346,10.0957976 C37.2599355,7.5086504 34.3715684,5.97552612 31.1943646,5.97552612 C27.824603,5.97552612 24.5511203,7.7961112 22.9143789,10.7665395 C22.7218211,11.0540003 22.5292633,11.2456408 22.1441477,11.2456408 C21.855311,11.2456408 21.5664743,11.1498206 21.3739165,10.95818 C20.5074063,9.99997736 18.5818283,8.37103281 16.4636924,8.37103281 C13.1902097,8.37103281 10.2055637,11.2456408 9.72416921,13.8327881 C9.6278903,14.3118894 9.24277469,14.5993502 8.76138018,14.5993502 C5.10278186,14.5993502 1.92557806,17.9530596 1.92557806,21.7858703 C1.92557806,22.3607919 1.54046245,22.744073 0.96278903,22.744073 C0.385115612,22.744073 0,22.3607919 0,21.7858703 C0,17.0906772 3.56231941,13.0662259 7.99114895,12.6829449 C8.95393798,9.52087602 12.3236996,6.45462746 16.3674135,6.45462746 C18.6781072,6.45462746 20.5074063,7.70029094 21.855311,8.75431388 C23.9734469,5.78388558 27.4394874,4.05912076 31.1943646,4.05912076 C34.4678473,4.05912076 37.4524933,5.40060451 39.6669081,7.7961112 C42.4589962,3.10091808 47.4654992,0.226310051 52.9533967,0.226310051 C58.9226887,0.226310051 64.3143072,3.67583969 66.8175587,8.94595442 C68.3580212,7.70029094 70.2835992,6.93372879 72.3054562,6.93372879 C76.445449,6.93372879 79.9114895,9.80833683 80.7779997,13.6411475 C85.9770604,12.9704057 90.5021689,17.0906772 90.5021689,22.2649716 C90.5021689,22.6482527 90.1170532,23.127354 89.5393798,23.127354 Z" id="Shape" stroke-width="2"></path>
                    <path d="M81.2593942,54.7480424 C78.9487005,54.7480424 77.7933537,54.1731208 76.7342857,53.6940195 C76.3491701,53.5023789 75.9640545,53.3107384 75.5789389,53.2149181 C74.8087077,52.9274573 74.0384764,52.8316371 73.0756874,52.8316371 C72.1128984,52.8316371 71.3426672,52.9274573 70.6687148,53.2149181 C70.3798781,53.3107384 70.0910414,53.4065587 69.8984836,53.5981992 L69.8022047,53.6940195 C68.9356946,54.0773005 67.7803477,54.6522221 65.8547697,54.8438627 C65.6622119,54.9396829 65.565933,54.9396829 65.3733752,54.8438627 L65.2770963,54.8438627 C64.6031439,54.8438627 64.0254705,54.7480424 63.544076,54.6522221 C62.6775659,54.4605816 62.0036136,54.1731208 61.3296612,53.88566 C60.9445456,53.6940195 60.55943,53.5023789 60.0780355,53.4065587 C59.3078043,53.1190979 58.537573,53.0232776 57.574784,53.0232776 C56.611995,53.0232776 55.8417638,53.1190979 55.0715325,53.4065587 C54.6864169,53.5981992 54.3013013,53.6940195 53.9161857,53.88566 C52.8571178,54.3647613 51.7017709,54.9396829 49.3910773,54.9396829 C49.1985195,54.9396829 48.9096827,54.9396829 48.7171249,54.9396829 C48.4282882,54.9396829 48.1394515,54.9396829 47.9468937,54.8438627 C47.8506148,54.8438627 47.8506148,54.8438627 47.7543359,54.8438627 C46.5027102,54.6522221 45.6362,54.2689411 44.8659688,53.88566 C44.4808532,53.6940195 44.0957376,53.5023789 43.710622,53.4065587 C43.3255064,53.2149181 42.8441119,53.2149181 42.4589962,53.1190979 C42.0738806,53.0232776 41.688765,53.0232776 41.2073705,53.0232776 C40.2445815,53.0232776 39.3780713,53.1190979 38.704119,53.4065587 C38.3190034,53.5023789 37.9338878,53.6940195 37.5487722,53.88566 C36.4897043,54.3647613 35.3343574,54.9396829 33.0236637,54.9396829 C32.9273848,54.9396829 32.8311059,54.9396829 32.734827,54.9396829 L32.6385481,54.9396829 C32.5422692,54.9396829 32.3497114,54.9396829 32.2534325,54.8438627 C30.809249,54.2689411 29.9427388,54.0773005 29.1725076,53.88566 C28.5948342,53.7898397 28.0171608,53.5981992 27.4394874,53.4065587 C27.3432085,53.4065587 27.2469296,53.3107384 27.1506507,53.3107384 L26.9580929,53.3107384 C26.3804194,53.1190979 25.7064671,53.1190979 24.9362359,53.1190979 C23.9734469,53.1190979 23.2032156,53.2149181 22.4329844,53.5023789 C22.2404266,53.5981992 22.1441477,53.5981992 22.0478688,53.6940195 L21.855311,53.7898397 C21.6627532,53.88566 21.4701954,53.9814803 21.2776376,54.0773005 C20.2185696,54.5564019 19.0632228,55.1313235 16.7525291,55.1313235 C16.6562502,55.1313235 16.5599713,55.1313235 16.4636924,55.1313235 L16.3674135,55.1313235 C16.2711346,55.1313235 16.1748557,55.1313235 15.9822979,55.0355032 C14.5381144,54.4605816 13.6716042,54.2689411 12.8050941,54.0773005 C12.2274207,53.9814803 11.6497473,53.7898397 10.9757949,53.5981992 C10.3018426,53.3107384 9.4353325,53.2149181 8.47254347,53.2149181 C7.60603334,53.2149181 6.93208102,53.3107384 6.2581287,53.5023789 C5.68045528,53.6940195 5.19906076,53.88566 4.71766625,54.0773005 C3.85115612,54.4605816 2.88836709,54.9396829 1.25162574,55.1313235 C1.15534684,55.1313235 1.15534684,55.1313235 1.05906793,55.1313235 C0.481394515,55.1313235 0.096278903,54.7480424 0.096278903,54.1731208 C0.096278903,53.6940195 0.481394515,53.3107384 0.96278903,53.2149181 L1.05906793,53.2149181 C2.31069367,53.1190979 3.0809249,52.7358168 3.85115612,52.3525357 C4.42882954,52.0650749 4.91022406,51.8734344 5.68045528,51.6817938 C6.54696541,51.4901533 7.41347553,51.2985128 8.37626456,51.2985128 C9.6278903,51.2985128 10.5906793,51.4901533 11.5534684,51.7776141 C12.1311418,51.9692546 12.6125363,52.0650749 13.1902097,52.2567154 C13.9604409,52.448356 14.92323,52.6399965 16.4636924,53.2149181 L16.5599713,53.2149181 C18.4855494,53.2149181 19.3520595,52.8316371 20.3148485,52.3525357 C20.5074063,52.2567154 20.6999642,52.1608952 20.9888009,52.0650749 L21.1813587,51.9692546 C21.3739165,51.8734344 21.4701954,51.8734344 21.6627532,51.7776141 C22.6255422,51.4901533 23.5883312,51.2985128 24.7436781,51.2985128 C25.7064671,51.2985128 26.5729772,51.394333 27.3432085,51.5859736 L27.5357663,51.5859736 C27.7283241,51.5859736 27.824603,51.6817938 28.0171608,51.6817938 C28.5948342,51.8734344 29.0762287,51.9692546 29.5576232,52.1608952 C30.3278545,52.3525357 31.2906435,52.5441762 32.734827,53.1190979 C32.8311059,53.1190979 32.8311059,53.1190979 32.9273848,53.1190979 C34.8529629,53.1190979 35.719473,52.7358168 36.6822621,52.2567154 C37.0673777,52.0650749 37.5487722,51.8734344 38.0301667,51.6817938 C38.9929557,51.394333 39.9557448,51.2026925 41.2073705,51.2026925 C41.7850439,51.2026925 42.2664384,51.2026925 42.651554,51.2985128 C43.2292275,51.394333 43.710622,51.4901533 44.2882954,51.6817938 C44.7696899,51.8734344 45.2510844,52.0650749 45.6362,52.2567154 C46.4064313,52.6399965 46.9841047,52.9274573 48.0431726,53.0232776 C48.1394515,53.0232776 48.1394515,53.0232776 48.2357304,53.0232776 C48.5245671,53.0232776 48.620846,53.0232776 48.8134038,53.0232776 C49.0059616,53.0232776 49.1022406,53.0232776 49.2947984,53.0232776 C51.1240975,53.0232776 51.9906076,52.6399965 52.9533967,52.1608952 C53.3385123,51.9692546 53.8199068,51.7776141 54.3013013,51.5859736 C55.2640903,51.2985128 56.2268794,51.1068722 57.3822262,51.1068722 C58.633852,51.1068722 59.596641,51.2985128 60.55943,51.5859736 C61.1371034,51.7776141 61.522219,51.9692546 62.0036136,52.1608952 C62.581287,52.448356 63.1589604,52.6399965 63.8329127,52.8316371 C64.2180283,52.9274573 64.6994228,53.0232776 65.0845385,53.0232776 C65.1808174,53.0232776 65.2770963,53.0232776 65.3733752,53.0232776 L65.3733752,53.0232776 C67.0101165,52.9274573 67.8766266,52.5441762 68.7431368,52.0650749 L68.8394157,51.9692546 C69.1282524,51.7776141 69.513368,51.6817938 69.8022047,51.5859736 C70.6687148,51.2985128 71.6315039,51.1068722 72.8831296,51.1068722 C74.1347553,51.1068722 75.0975444,51.2985128 76.0603334,51.5859736 C76.5417279,51.7776141 77.0231224,51.9692546 77.408238,52.1608952 C78.467306,52.6399965 79.3338161,53.0232776 81.1631153,53.0232776 C82.0296254,53.0232776 82.7998566,52.9274573 83.37753,52.7358168 C83.6663667,52.6399965 83.9552035,52.5441762 84.2440402,52.448356 C84.436598,52.3525357 84.6291558,52.2567154 84.8217136,52.1608952 C85.8807815,51.6817938 87.0361283,51.1068722 89.346822,51.1068722 C89.9244954,51.1068722 90.3096111,51.4901533 90.3096111,52.0650749 C90.3096111,52.6399965 89.9244954,53.0232776 89.346822,53.0232776 C87.5175229,53.0232776 86.6510127,53.4065587 85.5919448,53.88566 C85.399387,53.9814803 85.2068292,54.0773005 85.0142714,54.1731208 C84.7254347,54.2689411 84.3403191,54.4605816 83.9552035,54.5564019 C83.2812511,54.6522221 82.3184621,54.7480424 81.2593942,54.7480424 Z" id="Shape"></path>
                    <path d="M32.734827,66.1506543 C31.1943646,66.1506543 29.9427388,64.9049908 29.9427388,63.3718665 C29.9427388,61.8387422 31.1943646,60.5930787 32.734827,60.5930787 C33.3125005,60.5930787 33.6976161,60.9763598 33.6976161,61.5512814 C33.6976161,62.126203 33.3125005,62.5094841 32.734827,62.5094841 C32.2534325,62.5094841 31.8683169,62.8927652 31.8683169,63.3718665 C31.8683169,63.8509678 32.2534325,64.2342489 32.734827,64.2342489 C33.2162215,64.2342489 33.6013372,63.8509678 33.6013372,63.3718665 C33.6013372,62.7969449 33.9864528,62.4136638 34.5641262,62.4136638 C35.1417996,62.4136638 35.5269152,62.7969449 35.5269152,63.3718665 C35.5269152,64.9049908 34.2752895,66.1506543 32.734827,66.1506543 Z" id="Shape"></path>
                    <path d="M56.8045528,70.9416677 C55.2640903,70.9416677 54.0124646,69.6960042 54.0124646,68.1628799 C54.0124646,66.6297556 55.2640903,65.3840921 56.8045528,65.3840921 C57.3822262,65.3840921 57.7673418,65.7673732 57.7673418,66.3422948 C57.7673418,66.9172164 57.3822262,67.3004975 56.8045528,67.3004975 C56.3231583,67.3004975 55.9380427,67.6837786 55.9380427,68.1628799 C55.9380427,68.6419812 56.3231583,69.0252623 56.8045528,69.0252623 C57.2859473,69.0252623 57.6710629,68.6419812 57.6710629,68.1628799 C57.6710629,67.5879583 58.0561785,67.2046772 58.633852,67.2046772 C59.2115254,67.2046772 59.596641,67.5879583 59.596641,68.1628799 C59.596641,69.6960042 58.3450152,70.9416677 56.8045528,70.9416677 Z" id="Shape"></path>
                    <path d="M77.0231224,65.4799124 C75.48266,65.4799124 74.2310342,64.2342489 74.2310342,62.7011246 C74.2310342,61.1680003 75.48266,59.9223369 77.0231224,59.9223369 C77.6007959,59.9223369 77.9859115,60.3056179 77.9859115,60.8805395 C77.9859115,61.4554612 77.6007959,61.8387422 77.0231224,61.8387422 C76.5417279,61.8387422 76.1566123,62.2220233 76.1566123,62.7011246 C76.1566123,63.180226 76.5417279,63.563507 77.0231224,63.563507 C77.5045169,63.563507 77.8896326,63.180226 77.8896326,62.7011246 C77.8896326,62.126203 78.2747482,61.742922 78.8524216,61.742922 C79.430095,61.742922 79.8152106,62.126203 79.8152106,62.7011246 C79.8152106,64.2342489 78.5635849,65.4799124 77.0231224,65.4799124 Z" id="Shape"></path>
                    <path d="M12.5162574,74.7744784 C10.9757949,74.7744784 9.72416921,73.5288149 9.72416921,71.9956906 C9.72416921,70.4625663 10.9757949,69.2169028 12.5162574,69.2169028 C13.0939308,69.2169028 13.4790464,69.6001839 13.4790464,70.1751055 C13.4790464,70.7500271 13.0939308,71.1333082 12.5162574,71.1333082 C12.0348629,71.1333082 11.6497473,71.5165893 11.6497473,71.9956906 C11.6497473,72.4747919 12.0348629,72.858073 12.5162574,72.858073 C12.9976519,72.858073 13.3827675,72.4747919 13.3827675,71.9956906 C13.3827675,71.420769 13.7678831,71.0374879 14.3455566,71.0374879 C14.92323,71.0374879 15.3083456,71.420769 15.3083456,71.9956906 C15.3083456,73.5288149 14.0567198,74.7744784 12.5162574,74.7744784 Z" id="Shape"></path>
                    <path d="M38.5115612,75.8285013 C37.9338878,75.8285013 37.5487722,75.3494 37.5487722,74.8702986 C37.5487722,74.3911973 37.9338878,73.912096 38.5115612,73.912096 L38.5115612,73.912096 C39.0892346,73.912096 39.4743502,74.295377 39.4743502,74.8702986 C39.4743502,75.4452202 39.0892346,75.8285013 38.5115612,75.8285013 Z" id="Shape"></path>
                    <path d="M15.4046245,61.4554612 C15.1157878,61.4554612 14.92323,61.3596409 14.7306722,61.1680003 C14.4418355,60.8805395 14.3455566,60.4972585 14.5381144,60.1139774 C14.7306722,59.7306963 15.0195089,59.5390558 15.4046245,59.5390558 L15.4046245,59.5390558 C15.9822979,59.5390558 16.3674135,59.9223369 16.3674135,60.4972585 C16.3674135,60.8805395 16.1748557,61.2638206 15.7897401,61.3596409 C15.5971823,61.3596409 15.5009034,61.4554612 15.4046245,61.4554612 Z" id="Shape"></path>
                    <path d="M56.8045528,77.7449067 C56.2268794,77.7449067 55.8417638,77.2658053 55.8417638,76.786704 C55.8417638,76.3076027 56.2268794,75.8285013 56.8045528,75.8285013 L56.8045528,75.8285013 C57.3822262,75.8285013 57.7673418,76.2117824 57.7673418,76.786704 C57.7673418,77.3616256 57.3822262,77.7449067 56.8045528,77.7449067 Z" id="Shape"></path>
                    <path d="M52.9533967,60.4972585 L52.9533967,60.4972585 C52.3757233,60.4972585 51.9906076,60.1139774 51.9906076,59.5390558 C51.9906076,58.9641342 52.3757233,58.5808531 52.9533967,58.5808531 C53.3385123,58.5808531 53.627349,58.7724937 53.8199068,59.0599545 C53.9161857,59.1557747 53.9161857,59.3474153 53.9161857,59.5390558 C53.9161857,60.0181571 53.4347912,60.4972585 52.9533967,60.4972585 Z" id="Shape"></path>
                    <path d="M10.4944004,82.5359201 C10.3981215,82.5359201 10.3018426,82.5359201 10.1092848,82.4400998 C9.72416921,82.2484593 9.5316114,81.9609985 9.5316114,81.5777174 C9.5316114,81.0027958 9.91672701,80.6195147 10.4944004,80.6195147 L10.4944004,80.6195147 C10.879516,80.6195147 11.2646317,80.8111552 11.3609106,81.1944363 C11.5534684,81.5777174 11.4571895,81.9609985 11.1683528,82.2484593 C11.0720738,82.4400998 10.7832371,82.5359201 10.4944004,82.5359201 Z" id="Shape"></path>
                    <path d="M74.1347553,81.5777174 C74.0384764,81.5777174 74.0384764,81.5777174 74.1347553,81.5777174 C73.5570819,81.4818971 73.1719663,81.098616 73.1719663,80.6195147 C73.1719663,80.0445931 73.5570819,79.661312 74.1347553,79.661312 L74.1347553,79.661312 C74.7124288,79.661312 75.0975444,80.0445931 75.0975444,80.6195147 C75.0975444,80.9069755 75.0012655,81.1944363 74.8087077,81.2902566 C74.6161499,81.4818971 74.3273131,81.5777174 74.1347553,81.5777174 Z" id="Shape"></path>
                    <path d="M79.9114895,73.912096 C79.3338161,73.912096 78.9487005,73.4329946 78.9487005,72.9538933 C78.9487005,72.4747919 79.3338161,71.9956906 79.9114895,71.9956906 L79.9114895,71.9956906 C80.4891629,71.9956906 80.8742786,72.3789717 80.8742786,72.9538933 C80.8742786,73.5288149 80.392884,73.912096 79.9114895,73.912096 Z" id="Shape"></path>
                    <path d="M31.772038,82.5359201 C31.6757591,82.5359201 31.5794802,82.5359201 31.3869224,82.4400998 C31.0018068,82.2484593 30.809249,81.9609985 30.809249,81.5777174 C30.809249,81.0027958 31.1943646,80.6195147 31.772038,80.6195147 L31.772038,80.6195147 C32.1571536,80.6195147 32.5422692,80.8111552 32.6385481,81.1944363 C32.8311059,81.5777174 32.734827,81.9609985 32.4459903,82.2484593 C32.2534325,82.4400998 32.0608747,82.5359201 31.772038,82.5359201 Z" id="Shape"></path>
                    <path d="M100.130059,104.574582 L89.5393798,104.574582 C88.9617064,104.574582 88.5765908,104.191301 88.5765908,103.616379 C88.5765908,103.041457 88.9617064,102.658176 89.5393798,102.658176 L100.130059,102.658176 C111.876085,102.658176 121.311418,93.1719698 121.311418,81.5777174 L121.311418,54.7480424 C121.311418,43.0579697 111.779806,33.6675835 100.130059,33.6675835 L89.5393798,33.6675835 C88.9617064,33.6675835 88.5765908,33.2843024 88.5765908,32.7093808 C88.5765908,32.1344592 88.9617064,31.7511781 89.5393798,31.7511781 L100.130059,31.7511781 C112.935153,31.7511781 123.236996,42.0997671 123.236996,54.7480424 L123.236996,81.5777174 C123.236996,94.2259927 112.838874,104.574582 100.130059,104.574582 Z" id="Shape" stroke-width="2"></path>
                    <path d="M100.130059,94.9925549 L89.5393798,94.9925549 C88.9617064,94.9925549 88.5765908,94.6092738 88.5765908,94.0343522 C88.5765908,93.4594306 88.9617064,93.0761495 89.5393798,93.0761495 L100.130059,93.0761495 C106.484467,93.0761495 111.683528,87.9018551 111.683528,81.5777174 L111.683528,54.7480424 C111.683528,48.4239047 106.484467,43.2496103 100.130059,43.2496103 L89.5393798,43.2496103 C88.9617064,43.2496103 88.5765908,42.8663292 88.5765908,42.2914076 C88.5765908,41.716486 88.9617064,41.3332049 89.5393798,41.3332049 L100.130059,41.3332049 C107.543535,41.3332049 113.609106,47.3698818 113.609106,54.7480424 L113.609106,81.5777174 C113.609106,88.955878 107.543535,94.9925549 100.130059,94.9925549 Z" id="Shape" stroke-width="2"></path>
                </g>
            </g>
        </g>
    </g>
</svg>