<?xml version="1.0" encoding="UTF-8"?>
<svg width="137px" height="138px" viewBox="0 0 137 138" version="1.1" xmlns="http://www.w3.org/2000/svg" xmlns:xlink="http://www.w3.org/1999/xlink">
    <!-- Generator: Sketch 47.1 (45422) - http://www.bohemiancoding.com/sketch -->
    <title>beer</title>
    <desc>Created with Sketch.</desc>
    <defs></defs>
    <g id="Page-1" stroke="none" stroke-width="1" fill="none" fill-rule="evenodd">
        <g id="beer" transform="translate(1.000000, 1.000000)" fill-rule="nonzero">
            <path d="M60.0583689,76.6173672 C60.0583689,77.7626836 60.9999312,78.5956408 62.0461113,78.5956408 C63.0922915,78.5956408 64.0338538,77.6585639 64.0338538,76.6173672 L62.0461113,74.6390937 C60.9999312,74.6390937 60.0583689,75.5761707 60.0583689,76.6173672 Z M33.9038638,71.4113842 C33.9038638,72.5567005 34.7408079,73.3896578 35.8916061,73.3896578 C36.9377864,73.3896578 37.8793486,72.4525808 37.8793486,71.4113842 L35.8916061,69.4331107 C34.845426,69.4331107 33.9038638,70.266068 33.9038638,71.4113842 Z M12.3525515,58.9170249 C14.0264399,59.9582215 14.968002,59.9582215 17.7926886,60.9994182 L17.7926886,60.9994182 L17.7926886,60.9994182 C17.8973066,60.9994182 18.0019246,60.9994182 18.2111607,60.9994182 C20.9312292,60.9994182 22.2912634,60.2705805 23.3374437,59.6458625 L23.3374437,120.347625 C23.3374437,122.01354 24.802096,123.471214 26.4759843,123.471214 C28.1498726,123.471214 29.614525,122.01354 29.614525,120.347625 L29.614525,58.9170249 L30.2422331,58.9170249 C31.9161214,59.9582215 32.8576835,59.9582215 35.5777521,60.9994182 L35.5777521,60.9994182 C35.5777521,60.9994182 35.5777521,60.9994182 35.6823701,60.9994182 C35.7869881,60.9994182 35.9962241,60.7911788 36.1008422,60.7911788 C39.2393828,60.7911788 40.1809451,59.9582215 41.9594513,58.9170249 L46.4580262,58.9170249 L46.4580262,120.347625 C46.4580262,122.01354 47.9226786,123.471214 49.5965668,123.471214 C51.2704552,123.471214 52.7351075,122.01354 52.7351075,120.347625 L52.7351075,60.9994182 L52.8397255,60.9994182 C53.1535795,60.9994182 53.5720516,60.7911788 53.9905238,60.7911788 C57.1290644,60.7911788 58.0706266,59.9582215 59.8491329,58.9170249 L66.0215961,58.9170249 C67.2770123,59.9582215 68.5324286,60.4788198 69.5786088,60.7911788 L69.5786088,120.347625 C69.5786088,122.01354 71.0432611,123.471214 72.7171494,123.471214 C74.3910378,123.471214 75.85569,122.01354 75.85569,120.347625 L75.85569,59.8541018 C75.85569,59.7499822 76.4833982,59.9582215 76.7972522,58.9170249 L82.8650974,58.9170249 C84.6436038,59.9582215 85.689784,60.7911788 88.7237066,60.7911788 C89.8745048,60.7911788 90.3975949,60.8952985 91.4437751,60.6870592 L91.4437751,127.011283 C91.4437751,127.844241 90.2929769,128.677198 89.4560327,128.677198 L9.737101,128.677198 C7.95859465,127.636001 6.70317841,125.761847 6.70317841,123.471214 L6.70317841,58.9170249 L12.3525515,58.9170249 Z M11.9340794,80.7821537 C11.9340794,81.8233503 12.8756417,82.7604273 13.9218218,82.7604273 C15.07262,82.7604273 15.9095643,81.8233503 15.9095643,80.7821537 L13.9218218,78.8038802 C12.8756417,78.8038802 11.9340794,79.6368375 11.9340794,80.7821537 Z M82.0281533,70.6825466 C82.0281533,71.7237432 82.8650974,72.6608202 84.0158956,72.6608202 C85.1666939,72.6608202 86.0036381,71.7237432 86.0036381,70.6825466 L84.0158956,68.7042731 C82.9697154,68.7042731 82.0281533,69.5372303 82.0281533,70.6825466 Z" id="Shape" stroke="#FFBC00" stroke-width="8" fill="#FFBC00"></path>
            <path d="M13.9218218,78.8038802 L15.9095643,80.7821537 C15.9095643,81.8233503 14.968002,82.7604273 13.9218218,82.7604273 C12.7710236,82.7604273 11.9340794,81.8233503 11.9340794,80.7821537 C11.9340794,79.6368375 12.8756417,78.8038802 13.9218218,78.8038802 Z" id="Shape" fill="#FFFFFF"></path>
            <g id="Group" transform="translate(23.337444, 58.708786)" fill="#FDD835">
                <path d="M6.27708123,0.208239323 L6.27708123,61.6388393 C6.27708123,63.3047539 4.81242895,64.7624291 3.13854062,64.7624291 C1.46465229,64.7624291 0,63.3047539 0,61.6388393 L0,1.04119661 C0,0.937076949 0.523090103,1.35355559 0.732326144,0.312358983 L6.27708123,0.312358983 L6.27708123,0.208239323 Z" id="Shape"></path>
                <path d="M24.6898528,0.208239323 C26.1545052,1.24943593 27.0960674,1.77003424 29.0838097,1.97827356 L29.0838097,2.08239323 C29.1884277,2.08239323 29.3976638,2.29063254 29.3976638,2.29063254 L29.3976638,61.6388393 C29.3976638,63.3047539 27.9330115,64.7624291 26.2591232,64.7624291 C24.5852348,64.7624291 23.1205826,63.3047539 23.1205826,61.6388393 L23.1205826,0.208239323 L24.6898528,0.208239323 L24.6898528,0.208239323 Z" id="Shape"></path>
            </g>
            <g id="Group" transform="translate(33.799246, 69.381051)" fill="#FFFFFF">
                <path d="M28.2468655,5.25804288 L30.234608,7.23631644 C30.234608,8.38163271 29.2930458,9.21459 28.2468655,9.21459 C27.2006854,9.21459 26.2591232,8.27751306 26.2591232,7.23631644 C26.2591232,6.19511983 27.2006854,5.25804288 28.2468655,5.25804288 Z" id="Shape"></path>
                <path d="M2.09236041,0.0520598305 L4.08010281,2.03033339 C4.08010281,3.17564967 3.13854062,4.00860695 2.09236041,4.00860695 C1.04618021,4.00860695 0.104618021,3.07153 0.104618021,2.03033339 C0.104618021,0.885017119 1.04618021,0.0520598305 2.09236041,0.0520598305 Z" id="Shape"></path>
            </g>
            <path d="M20.7847639,7.83591921 C23.1909785,7.83591921 25.3879569,9.08535513 26.8526092,10.7512697 C28.8403516,7.3153209 32.5019823,5.12880802 36.7913211,5.12880802 C40.6621879,5.12880802 44.1145826,7.10708157 46.206943,10.0224321 C48.7177754,4.60820971 54.1579126,0.964021575 60.4349938,0.964021575 C67.2351652,0.964021575 72.9891563,5.23292767 75.1861347,11.1677483 C76.7554051,9.39771411 78.9523834,8.25239785 81.567834,8.25239785 C85.9617908,8.25239785 89.5188035,11.584227 89.9372756,15.7490134 C90.5649838,15.6448937 91.2973099,15.0201758 91.925018,15.0201758 C96.5282109,15.0201758 100.29446,18.664364 100.29446,22.8291504 L4.04588069,22.8291504 C4.04588069,18.664364 7.81212943,14.4995775 12.4153223,14.4995775 L12.5199404,14.4995775 C13.0430304,11.4801073 16.4954251,7.83591921 20.7847639,7.83591921 Z" id="Shape" stroke="#FFFFFF" stroke-width="2" fill="#FFFFFF"></path>
            <path d="M75.646454,59.8541018 L75.646454,120.347625 C75.646454,122.01354 74.1818017,123.471214 72.5079134,123.471214 C70.834025,123.471214 69.3693728,122.01354 69.3693728,120.347625 L69.3693728,60.8952985 C69.3693728,60.9994182 70.4155529,61.1035377 71.0432611,61.1035377 L71.0432611,61.1035377 C71.0432611,61.1035377 71.0432611,61.1035377 71.1478792,61.1035377 C71.2524972,61.1035377 71.4617332,61.1035377 71.4617332,61.1035377 L71.4617332,61.1035377 C73.5540936,60.8952985 74.6002738,60.3747002 75.646454,59.8541018 Z" id="Shape" fill="#FDD835"></path>
            <path d="M86.0036381,70.6825466 C86.0036381,71.7237432 85.1666939,72.6608202 84.0158956,72.6608202 C82.8650974,72.6608202 82.0281533,71.7237432 82.0281533,70.6825466 C82.0281533,69.5372303 82.9697154,68.7042731 84.0158956,68.7042731 L86.0036381,70.6825466 Z" id="Shape" fill="#FFFFFF"></path>
            <g id="Group-6" transform="translate(0.321479, 2.550616)" stroke="#474A4F" fill="#474A4F">
                <path d="M85.7867769,133.414959 L12.5541625,133.414959 C5.64937311,133.414959 0,127.792496 0,120.920598 L0,24.0893141 C0,23.4645962 0.418472082,23.0481175 1.04618021,23.0481175 L97.2947592,23.0481175 C97.9224673,23.0481175 98.3409394,23.4645962 98.3409394,24.0893141 L98.3409394,120.920598 C98.3409394,127.792496 92.6915663,133.414959 85.7867769,133.414959 Z M2.09236041,25.1305106 L2.09236041,120.920598 C2.09236041,126.64718 6.80017134,131.332565 12.5541625,131.332565 L85.7867769,131.332565 C91.5407681,131.332565 96.248579,126.64718 96.248579,120.920598 L96.248579,25.1305106 L2.09236041,25.1305106 Z" id="Shape" stroke-width="2"></path>
                <path d="M97.2947592,35.5424768 L17.7850635,35.5424768 C17.1573554,35.5424768 16.7388833,35.1259982 16.7388833,34.5012801 C16.7388833,33.8765622 17.1573554,33.4600836 17.7850635,33.4600836 L97.2947592,33.4600836 C97.9224673,33.4600836 98.3409394,33.8765622 98.3409394,34.5012801 C98.3409394,35.1259982 97.9224673,35.5424768 97.2947592,35.5424768 Z" id="Shape"></path>
                <path d="M9.41562185,35.5424768 L1.04618021,35.5424768 C0.418472082,35.5424768 0,35.1259982 0,34.5012801 C0,33.8765622 0.418472082,33.4600836 1.04618021,33.4600836 L9.41562185,33.4600836 C10.04333,33.4600836 10.4618021,33.8765622 10.4618021,34.5012801 C10.4618021,35.1259982 10.04333,35.5424768 9.41562185,35.5424768 Z" id="Shape"></path>
                <path d="M26.1545052,121.961795 C23.8529087,121.961795 21.9697843,120.087641 21.9697843,117.797009 L21.9697843,54.2840158 C21.9697843,53.6592978 22.3882565,53.2428191 23.0159646,53.2428191 C23.6436727,53.2428191 24.0621447,53.6592978 24.0621447,54.2840158 L24.0621447,117.797009 C24.0621447,118.942325 25.0037069,119.879403 26.1545052,119.879403 C27.3053034,119.879403 28.2468655,118.942325 28.2468655,117.797009 L28.2468655,43.8720496 C28.2468655,42.7267334 27.3053034,41.7896565 26.1545052,41.7896565 C25.0037069,41.7896565 24.0621447,42.7267334 24.0621447,43.8720496 L24.0621447,45.9544429 C24.0621447,46.5791609 23.6436727,46.9956395 23.0159646,46.9956395 C22.3882565,46.9956395 21.9697843,46.5791609 21.9697843,45.9544429 L21.9697843,43.8720496 C21.9697843,41.5814172 23.8529087,39.7072632 26.1545052,39.7072632 C28.4561016,39.7072632 30.339226,41.5814172 30.339226,43.8720496 L30.339226,117.797009 C30.339226,120.087641 28.4561016,121.961795 26.1545052,121.961795 Z" id="Shape" stroke-width="2"></path>
                <path d="M49.1704697,121.961795 C46.8688733,121.961795 44.9857489,120.087641 44.9857489,117.797009 L44.9857489,54.2840158 C44.9857489,53.6592978 45.4042209,53.2428191 46.031929,53.2428191 C46.6596372,53.2428191 47.0781093,53.6592978 47.0781093,54.2840158 L47.0781093,117.797009 C47.0781093,118.942325 48.0196715,119.879403 49.1704697,119.879403 C50.321268,119.879403 51.2628301,118.942325 51.2628301,117.797009 L51.2628301,43.8720496 C51.2628301,42.7267334 50.321268,41.7896565 49.1704697,41.7896565 C48.0196715,41.7896565 47.0781093,42.7267334 47.0781093,43.8720496 L47.0781093,45.9544429 C47.0781093,46.5791609 46.6596372,46.9956395 46.031929,46.9956395 C45.4042209,46.9956395 44.9857489,46.5791609 44.9857489,45.9544429 L44.9857489,43.8720496 C44.9857489,41.5814172 46.8688733,39.7072632 49.1704697,39.7072632 C51.4720662,39.7072632 53.3551906,41.5814172 53.3551906,43.8720496 L53.3551906,117.797009 C53.3551906,120.087641 51.4720662,121.961795 49.1704697,121.961795 Z" id="Shape" stroke-width="2"></path>
                <path d="M72.1864342,121.961795 C69.8848377,121.961795 68.0017134,120.087641 68.0017134,117.797009 L68.0017134,54.2840158 C68.0017134,53.6592978 68.4201855,53.2428191 69.0478936,53.2428191 C69.6756017,53.2428191 70.0940738,53.6592978 70.0940738,54.2840158 L70.0940738,117.797009 C70.0940738,118.942325 71.035636,119.879403 72.1864342,119.879403 C73.3372324,119.879403 74.2787947,118.942325 74.2787947,117.797009 L74.2787947,43.8720496 C74.2787947,42.7267334 73.3372324,41.7896565 72.1864342,41.7896565 C71.035636,41.7896565 70.0940738,42.7267334 70.0940738,43.8720496 L70.0940738,45.9544429 C70.0940738,46.5791609 69.6756017,46.9956395 69.0478936,46.9956395 C68.4201855,46.9956395 68.0017134,46.5791609 68.0017134,45.9544429 L68.0017134,43.8720496 C68.0017134,41.5814172 69.8848377,39.7072632 72.1864342,39.7072632 C74.4880307,39.7072632 76.371155,41.5814172 76.371155,43.8720496 L76.371155,117.797009 C76.371155,120.087641 74.4880307,121.961795 72.1864342,121.961795 Z" id="Shape" stroke-width="2"></path>
                <path d="M97.2947592,25.1305106 C96.667051,25.1305106 96.248579,24.7140321 96.248579,24.0893141 C96.248579,19.508049 91.9592402,15.7597412 87.1468111,17.0091772 C86.8329571,17.1132968 86.519103,17.0091772 86.309867,16.8009378 C86.100631,16.5926985 85.8913949,16.3844592 85.8913949,16.0721002 C85.4729229,12.3237924 82.3343822,9.51256154 78.5681335,9.51256154 C76.4757731,9.51256154 74.3834127,10.4496385 73.0233784,12.1155531 C72.8141423,12.4279121 72.3956703,12.5320317 72.0818162,12.4279121 C71.7679622,12.3237924 71.4541081,12.1155531 71.2448721,11.8031941 C69.1525116,6.07661273 63.6077565,2.22418527 57.5399114,2.22418527 C51.8905382,2.22418527 46.6596372,5.55601443 44.2534227,10.7619975 C44.1488047,11.0743565 43.7303327,11.2825957 43.4164786,11.3867154 C42.9980064,11.3867154 42.6841524,11.2825957 42.4749163,10.9702368 C40.487174,8.15900595 37.3486334,6.49309137 33.8962387,6.49309137 C30.234608,6.49309137 26.6775953,8.47136493 24.8990889,11.6990744 C24.6898528,12.0114334 24.4806168,12.2196727 24.0621447,12.2196727 C23.7482907,12.2196727 23.4344366,12.1155531 23.2252006,11.9073137 C22.2836383,10.8661171 20.191278,9.0960829 17.8896815,9.0960829 C14.3326688,9.0960829 11.0895102,12.2196727 10.5664201,15.0309036 C10.4618021,15.5515019 10.04333,15.8638608 9.52023988,15.8638608 C5.54475509,15.8638608 2.09236041,19.508049 2.09236041,23.6728354 C2.09236041,24.2975534 1.67388833,24.7140321 1.04618021,24.7140321 C0.418472082,24.7140321 0,24.2975534 0,23.6728354 C0,18.5709721 3.87086676,14.1979463 8.68329571,13.7814677 C9.72947592,10.3455188 13.3911067,7.01368968 17.7850635,7.01368968 C20.295896,7.01368968 22.2836383,8.36724527 23.7482907,9.51256154 C26.0498872,6.28485205 29.8161359,4.41069815 33.8962387,4.41069815 C37.4532514,4.41069815 40.69641,5.8683734 43.1026245,8.47136493 C46.1365471,3.36950154 51.5766842,0.245911709 57.5399114,0.245911709 C64.0262287,0.245911709 69.8848377,3.99421951 72.6049063,9.72080087 C74.2787947,8.36724527 76.371155,7.53428798 78.5681335,7.53428798 C83.0667084,7.53428798 86.8329571,10.6578778 87.7745194,14.8226642 C93.4238924,14.0938267 98.3409394,18.5709721 98.3409394,24.1934337 C98.3409394,24.6099124 97.9224673,25.1305106 97.2947592,25.1305106 Z" id="Shape" stroke-width="2"></path>
                <path d="M88.2976094,59.4899988 C85.7867769,59.4899988 84.5313607,58.8652809 83.3805624,58.3446826 C82.9620903,58.1364432 82.5436183,57.9282039 82.1251462,57.8240842 C81.2882021,57.5117253 80.4512578,57.4076057 79.4050776,57.4076057 C78.3588975,57.4076057 77.5219533,57.5117253 76.7896271,57.8240842 C76.4757731,57.9282039 76.161919,58.0323236 75.952683,58.2405629 L75.8480649,58.3446826 C74.9065028,58.7611612 73.6510865,59.3858791 71.5587261,59.5941185 C71.3494901,59.6982381 71.2448721,59.6982381 71.035636,59.5941185 L70.931018,59.5941185 C70.1986918,59.5941185 69.5709837,59.4899988 69.0478936,59.3858791 C68.1063315,59.1776398 67.3740053,58.8652809 66.6416791,58.5529219 C66.223207,58.3446826 65.804735,58.1364432 65.2816449,58.0323236 C64.4447007,57.7199646 63.6077565,57.615845 62.5615763,57.615845 C61.5153961,57.615845 60.678452,57.7199646 59.8415078,58.0323236 C59.4230357,58.2405629 59.0045636,58.3446826 58.5860915,58.5529219 C57.4352934,59.0735202 56.179877,59.6982381 53.6690446,59.6982381 C53.4598086,59.6982381 53.1459544,59.6982381 52.9367184,59.6982381 C52.6228643,59.6982381 52.3090103,59.6982381 52.0997743,59.5941185 C51.9951562,59.5941185 51.9951562,59.5941185 51.8905382,59.5941185 C50.530504,59.3858791 49.5889417,58.9694006 48.7519976,58.5529219 C48.3335255,58.3446826 47.9150535,58.1364432 47.4965814,58.0323236 C47.0781093,57.8240842 46.5550192,57.8240842 46.1365471,57.7199646 C45.718075,57.615845 45.2996029,57.615845 44.7765128,57.615845 C43.7303327,57.615845 42.7887704,57.7199646 42.0564443,58.0323236 C41.6379722,58.1364432 41.2195001,58.3446826 40.8010281,58.5529219 C39.6502299,59.0735202 38.3948136,59.6982381 35.883981,59.6982381 C35.779363,59.6982381 35.674745,59.6982381 35.570127,59.6982381 L35.465509,59.6982381 C35.3608909,59.6982381 35.1516549,59.6982381 35.0470369,59.5941185 C33.4777666,58.9694006 32.5362044,58.7611612 31.6992602,58.5529219 C31.0715521,58.4488022 30.443844,58.2405629 29.8161359,58.0323236 C29.7115179,58.0323236 29.6068999,57.9282039 29.5022819,57.9282039 L29.2930458,57.9282039 C28.6653376,57.7199646 27.9330115,57.7199646 27.0960674,57.7199646 C26.0498872,57.7199646 25.2129429,57.8240842 24.3759988,58.1364432 C24.1667628,58.2405629 24.0621447,58.2405629 23.9575267,58.3446826 L23.7482907,58.4488022 C23.5390547,58.5529219 23.3298186,58.6570416 23.1205826,58.7611612 C21.9697843,59.2817595 20.7143681,59.9064775 18.2035356,59.9064775 C18.0989175,59.9064775 17.9942995,59.9064775 17.8896815,59.9064775 L17.7850635,59.9064775 C17.6804455,59.9064775 17.5758275,59.9064775 17.3665914,59.8023578 C15.7973212,59.1776398 14.8557589,58.9694006 13.9141967,58.7611612 C13.2864886,58.6570416 12.6587805,58.4488022 11.9264543,58.2405629 C11.1941282,57.9282039 10.252566,57.8240842 9.20638582,57.8240842 C8.26482363,57.8240842 7.53249749,57.9282039 6.80017134,58.1364432 C6.17246322,58.3446826 5.64937311,58.5529219 5.12628301,58.7611612 C4.18472082,59.1776398 3.13854062,59.6982381 1.36003427,59.9064775 C1.25541625,59.9064775 1.25541625,59.9064775 1.15079822,59.9064775 C0.523090103,59.9064775 0.104618021,59.4899988 0.104618021,58.8652809 C0.104618021,58.3446826 0.523090103,57.9282039 1.04618021,57.8240842 L1.15079822,57.8240842 C2.51083249,57.7199646 3.34777666,57.303486 4.18472082,56.8870073 C4.81242895,56.5746483 5.33551906,56.366409 6.17246322,56.1581696 C7.11402541,55.9499304 8.05558758,55.7416911 9.10176779,55.7416911 C10.4618021,55.7416911 11.5079822,55.9499304 12.5541625,56.2622893 C13.1818706,56.4705286 13.7049607,56.5746483 14.3326688,56.7828876 C15.1696129,56.991127 16.2157932,57.1993663 17.8896815,57.8240842 L17.9942995,57.8240842 C20.08666,57.8240842 21.0282221,57.4076057 22.0744023,56.8870073 C22.2836383,56.7828876 22.4928745,56.678768 22.8067285,56.5746483 L23.0159646,56.4705286 C23.2252006,56.366409 23.3298186,56.366409 23.5390547,56.2622893 C24.5852348,55.9499304 25.631415,55.7416911 26.8868313,55.7416911 C27.9330115,55.7416911 28.8745737,55.8458107 29.7115179,56.0540501 L29.9207539,56.0540501 C30.12999,56.0540501 30.234608,56.1581696 30.443844,56.1581696 C31.0715521,56.366409 31.5946422,56.4705286 32.1177323,56.678768 C32.9546765,56.8870073 34.0008567,57.0952466 35.570127,57.7199646 C35.674745,57.7199646 35.674745,57.7199646 35.779363,57.7199646 C37.8717235,57.7199646 38.8132856,57.303486 39.8594659,56.7828876 C40.277938,56.5746483 40.8010281,56.366409 41.3241181,56.1581696 C42.3702983,55.8458107 43.4164786,55.6375714 44.7765128,55.6375714 C45.4042209,55.6375714 45.927311,55.6375714 46.3457831,55.7416911 C46.9734913,55.8458107 47.4965814,55.9499304 48.1242895,56.1581696 C48.6473796,56.366409 49.1704697,56.5746483 49.5889417,56.7828876 C50.425886,57.1993663 51.0535941,57.5117253 52.2043923,57.615845 C52.3090103,57.615845 52.3090103,57.615845 52.4136283,57.615845 C52.7274824,57.615845 52.8321004,57.615845 53.0413364,57.615845 C53.2505724,57.615845 53.3551906,57.615845 53.5644266,57.615845 C55.5521689,57.615845 56.4937311,57.1993663 57.5399114,56.678768 C57.9583834,56.4705286 58.4814735,56.2622893 59.0045636,56.0540501 C60.0507438,55.7416911 61.0969241,55.5334517 62.3523403,55.5334517 C63.7123746,55.5334517 64.7585548,55.7416911 65.804735,56.0540501 C66.4324431,56.2622893 66.8509151,56.4705286 67.3740053,56.678768 C68.0017134,56.991127 68.6294215,57.1993663 69.3617477,57.4076057 C69.7802197,57.5117253 70.3033098,57.615845 70.721782,57.615845 C70.8264,57.615845 70.931018,57.615845 71.035636,57.615845 L71.035636,57.615845 C72.8141423,57.5117253 73.7557045,57.0952466 74.6972668,56.5746483 L74.8018848,56.4705286 C75.1157388,56.2622893 75.5342109,56.1581696 75.8480649,56.0540501 C76.7896271,55.7416911 77.8358074,55.5334517 79.1958416,55.5334517 C80.5558758,55.5334517 81.6020561,55.7416911 82.6482363,56.0540501 C83.1713264,56.2622893 83.6944165,56.4705286 84.1128885,56.678768 C85.2636868,57.1993663 86.205249,57.615845 88.1929914,57.615845 C89.1345536,57.615845 89.9714977,57.5117253 90.5992058,57.303486 C90.9130599,57.1993663 91.226914,57.0952466 91.5407681,56.991127 C91.7500041,56.8870073 91.9592402,56.7828876 92.1684762,56.678768 C93.3192744,56.1581696 94.5746906,55.5334517 97.0855231,55.5334517 C97.7132312,55.5334517 98.1317034,55.9499304 98.1317034,56.5746483 C98.1317034,57.1993663 97.7132312,57.615845 97.0855231,57.615845 C95.0977808,57.615845 94.1562185,58.0323236 93.0054203,58.5529219 C92.7961843,58.6570416 92.5869483,58.7611612 92.3777122,58.8652809 C92.0638582,58.9694006 91.6453861,59.1776398 91.226914,59.2817595 C90.4945878,59.3858791 89.4484076,59.4899988 88.2976094,59.4899988 Z" id="Shape"></path>
                <path d="M35.570127,71.8802385 C33.8962387,71.8802385 32.5362044,70.5266829 32.5362044,68.8607683 C32.5362044,67.1948537 33.8962387,65.8412981 35.570127,65.8412981 C36.1978352,65.8412981 36.6163073,66.2577768 36.6163073,66.8824947 C36.6163073,67.5072127 36.1978352,67.9236914 35.570127,67.9236914 C35.0470369,67.9236914 34.6285648,68.3401701 34.6285648,68.8607683 C34.6285648,69.3813666 35.0470369,69.7978453 35.570127,69.7978453 C36.0932171,69.7978453 36.5116892,69.3813666 36.5116892,68.8607683 C36.5116892,68.2360504 36.9301613,67.8195717 37.5578694,67.8195717 C38.1855775,67.8195717 38.6040496,68.2360504 38.6040496,68.8607683 C38.6040496,70.5266829 37.2440154,71.8802385 35.570127,71.8802385 Z" id="Shape"></path>
                <path d="M61.7246322,77.0862216 C60.0507438,77.0862216 58.6907096,75.732666 58.6907096,74.0667514 C58.6907096,72.4008368 60.0507438,71.0472812 61.7246322,71.0472812 C62.3523403,71.0472812 62.7708123,71.4637599 62.7708123,72.0884778 C62.7708123,72.7131958 62.3523403,73.1296744 61.7246322,73.1296744 C61.2015421,73.1296744 60.78307,73.5461531 60.78307,74.0667514 C60.78307,74.5873497 61.2015421,75.0038283 61.7246322,75.0038283 C62.2477223,75.0038283 62.6661943,74.5873497 62.6661943,74.0667514 C62.6661943,73.4420334 63.0846664,73.0255548 63.7123746,73.0255548 C64.3400827,73.0255548 64.7585548,73.4420334 64.7585548,74.0667514 C64.7585548,75.732666 63.3985205,77.0862216 61.7246322,77.0862216 Z" id="Shape"></path>
                <path d="M83.6944165,71.1514009 C82.0205282,71.1514009 80.6604939,69.7978453 80.6604939,68.1319307 C80.6604939,66.4660161 82.0205282,65.1124606 83.6944165,65.1124606 C84.3221247,65.1124606 84.7405967,65.5289391 84.7405967,66.1536571 C84.7405967,66.7783752 84.3221247,67.1948537 83.6944165,67.1948537 C83.1713264,67.1948537 82.7528543,67.6113324 82.7528543,68.1319307 C82.7528543,68.652529 83.1713264,69.0690076 83.6944165,69.0690076 C84.2175066,69.0690076 84.6359787,68.652529 84.6359787,68.1319307 C84.6359787,67.5072127 85.0544508,67.0907341 85.6821589,67.0907341 C86.309867,67.0907341 86.7283391,67.5072127 86.7283391,68.1319307 C86.7283391,69.7978453 85.3683049,71.1514009 83.6944165,71.1514009 Z" id="Shape"></path>
                <path d="M13.6003427,81.251008 C11.9264543,81.251008 10.5664201,79.8974524 10.5664201,78.2315378 C10.5664201,76.5656232 11.9264543,75.2120676 13.6003427,75.2120676 C14.2280508,75.2120676 14.6465229,75.6285463 14.6465229,76.2532642 C14.6465229,76.8779822 14.2280508,77.2944609 13.6003427,77.2944609 C13.0772526,77.2944609 12.6587805,77.7109396 12.6587805,78.2315378 C12.6587805,78.7521361 13.0772526,79.1686148 13.6003427,79.1686148 C14.1234328,79.1686148 14.5419048,78.7521361 14.5419048,78.2315378 C14.5419048,77.6068199 14.9603769,77.1903412 15.5880851,77.1903412 C16.2157932,77.1903412 16.6342653,77.6068199 16.6342653,78.2315378 C16.6342653,79.8974524 15.274231,81.251008 13.6003427,81.251008 Z" id="Shape"></path>
                <path d="M41.8472082,82.3963242 C41.2195001,82.3963242 40.8010281,81.875726 40.8010281,81.3551276 C40.8010281,80.8345293 41.2195001,80.3139311 41.8472082,80.3139311 L41.8472082,80.3139311 C42.4749163,80.3139311 42.8933884,80.7304097 42.8933884,81.3551276 C42.8933884,81.9798456 42.4749163,82.3963242 41.8472082,82.3963242 Z" id="Shape"></path>
                <path d="M16.7388833,66.7783752 C16.4250293,66.7783752 16.2157932,66.6742555 16.0065572,66.4660161 C15.6927031,66.1536571 15.5880851,65.7371785 15.7973212,65.3206999 C16.0065572,64.9042212 16.3204112,64.6959819 16.7388833,64.6959819 L16.7388833,64.6959819 C17.3665914,64.6959819 17.7850635,65.1124606 17.7850635,65.7371785 C17.7850635,66.1536571 17.5758275,66.5701358 17.1573554,66.6742555 C16.9481193,66.6742555 16.8435013,66.7783752 16.7388833,66.7783752 Z" id="Shape"></path>
                <path d="M61.7246322,84.4787175 C61.0969241,84.4787175 60.678452,83.9581191 60.678452,83.4375209 C60.678452,82.9169226 61.0969241,82.3963242 61.7246322,82.3963242 L61.7246322,82.3963242 C62.3523403,82.3963242 62.7708123,82.8128029 62.7708123,83.4375209 C62.7708123,84.0622388 62.3523403,84.4787175 61.7246322,84.4787175 Z" id="Shape"></path>
                <path d="M57.5399114,65.7371785 L57.5399114,65.7371785 C56.9122033,65.7371785 56.4937311,65.3206999 56.4937311,64.6959819 C56.4937311,64.0712639 56.9122033,63.6547853 57.5399114,63.6547853 C57.9583834,63.6547853 58.2722375,63.8630247 58.4814735,64.1753836 C58.5860915,64.2795032 58.5860915,64.4877426 58.5860915,64.6959819 C58.5860915,65.2165802 58.0630015,65.7371785 57.5399114,65.7371785 Z" id="Shape"></path>
                <path d="M11.4033642,89.6847006 C11.2987462,89.6847006 11.1941282,89.6847006 10.9848921,89.5805809 C10.5664201,89.3723416 10.357184,89.0599826 10.357184,88.6435039 C10.357184,88.018786 10.7756561,87.6023073 11.4033642,87.6023073 L11.4033642,87.6023073 C11.8218363,87.6023073 12.2403085,87.8105466 12.3449265,88.2270253 C12.5541625,88.6435039 12.4495445,89.0599826 12.1356904,89.3723416 C12.0310723,89.5805809 11.7172183,89.6847006 11.4033642,89.6847006 Z" id="Shape"></path>
                <path d="M80.5558758,88.6435039 C80.4512578,88.6435039 80.4512578,88.6435039 80.5558758,88.6435039 C79.9281677,88.5393843 79.5096957,88.1229056 79.5096957,87.6023073 C79.5096957,86.9775894 79.9281677,86.5611107 80.5558758,86.5611107 L80.5558758,86.5611107 C81.1835841,86.5611107 81.6020561,86.9775894 81.6020561,87.6023073 C81.6020561,87.9146663 81.4974381,88.2270253 81.2882021,88.331145 C81.078966,88.5393843 80.7651119,88.6435039 80.5558758,88.6435039 Z" id="Shape"></path>
                <path d="M86.8329571,80.3139311 C86.205249,80.3139311 85.7867769,79.7933327 85.7867769,79.2727345 C85.7867769,78.7521361 86.205249,78.2315378 86.8329571,78.2315378 L86.8329571,78.2315378 C87.4606652,78.2315378 87.8791374,78.6480165 87.8791374,79.2727345 C87.8791374,79.8974524 87.3560472,80.3139311 86.8329571,80.3139311 Z" id="Shape"></path>
                <path d="M34.5239468,89.6847006 C34.4193288,89.6847006 34.3147108,89.6847006 34.1054747,89.5805809 C33.6870027,89.3723416 33.4777666,89.0599826 33.4777666,88.6435039 C33.4777666,88.018786 33.8962387,87.6023073 34.5239468,87.6023073 L34.5239468,87.6023073 C34.9424189,87.6023073 35.3608909,87.8105466 35.465509,88.2270253 C35.674745,88.6435039 35.570127,89.0599826 35.2562729,89.3723416 C35.0470369,89.5805809 34.8378009,89.6847006 34.5239468,89.6847006 Z" id="Shape"></path>
                <path d="M108.802741,113.632223 L97.2947592,113.632223 C96.667051,113.632223 96.248579,113.215744 96.248579,112.591026 C96.248579,111.966308 96.667051,111.549829 97.2947592,111.549829 L108.802741,111.549829 C121.56614,111.549829 131.818706,101.241983 131.818706,88.6435039 L131.818706,59.4899988 C131.818706,46.7874001 121.461521,36.5836734 108.802741,36.5836734 L97.2947592,36.5836734 C96.667051,36.5836734 96.248579,36.1671947 96.248579,35.5424768 C96.248579,34.9177588 96.667051,34.5012801 97.2947592,34.5012801 L108.802741,34.5012801 C122.716938,34.5012801 133.911067,45.7462036 133.911067,59.4899988 L133.911067,88.6435039 C133.911067,102.387299 122.61232,113.632223 108.802741,113.632223 Z" id="Shape" stroke-width="2"></path>
                <path d="M108.802741,103.220257 L97.2947592,103.220257 C96.667051,103.220257 96.248579,102.803778 96.248579,102.17906 C96.248579,101.554342 96.667051,101.137863 97.2947592,101.137863 L108.802741,101.137863 C115.707531,101.137863 121.356904,95.5154016 121.356904,88.6435039 L121.356904,59.4899988 C121.356904,52.6181012 115.707531,46.9956395 108.802741,46.9956395 L97.2947592,46.9956395 C96.667051,46.9956395 96.248579,46.5791609 96.248579,45.9544429 C96.248579,45.3297249 96.667051,44.9132463 97.2947592,44.9132463 L108.802741,44.9132463 C116.858329,44.9132463 123.449265,51.4727849 123.449265,59.4899988 L123.449265,88.6435039 C123.449265,96.6607178 116.858329,103.220257 108.802741,103.220257 Z" id="Shape" stroke-width="2"></path>
            </g>
        </g>
    </g>
</svg>