<?xml version="1.0" encoding="UTF-8"?>
<svg width="444px" height="421px" viewBox="0 0 444 421" version="1.1" xmlns="http://www.w3.org/2000/svg" xmlns:xlink="http://www.w3.org/1999/xlink">
    <!-- Generator: Sketch 47.1 (45422) - http://www.bohemiancoding.com/sketch -->
    <title>illus copy</title>
    <desc>Created with Sketch.</desc>
    <defs>
        <filter x="-1.7%" y="-1.8%" width="103.4%" height="103.6%" filterUnits="objectBoundingBox" id="filter-1">
            <feOffset dx="0" dy="0" in="SourceAlpha" result="shadowOffsetOuter1"></feOffset>
            <feGaussianBlur stdDeviation="3" in="shadowOffsetOuter1" result="shadowBlurOuter1"></feGaussianBlur>
            <feColorMatrix values="0 0 0 0 0.00175382653   0 0 0 0 0.00175382653   0 0 0 0 0.00175382653  0 0 0 0.273607337 0" type="matrix" in="shadowBlurOuter1" result="shadowMatrixOuter1"></feColorMatrix>
            <feMerge>
                <feMergeNode in="shadowMatrixOuter1"></feMergeNode>
                <feMergeNode in="SourceGraphic"></feMergeNode>
            </feMerge>
        </filter>
    </defs>
    <g id="Page-1" stroke="none" stroke-width="1" fill="none" fill-rule="evenodd">
        <g id="illus-copy" filter="url(#filter-1)" transform="translate(-67.000000, -44.000000)">
            <path d="M470.08547,271.901709 C470.08547,374.864694 387.095161,458.333333 284.722222,458.333333 C182.349283,458.333333 99.3589744,374.864694 99.3589744,271.901709 C99.3589744,168.938724 182.349283,85.4700855 284.722222,85.4700855 C387.095161,85.4700855 470.08547,168.938724 470.08547,271.901709" id="Fill-34" fill="#36D5FF"></path>
            <path d="M314.777743,193.376068 L300.60845,193.376068 C293.899253,193.376068 288.461538,198.876908 288.461538,205.662393 C288.461538,212.447879 293.899253,217.948718 300.60845,217.948718 L314.777743,217.948718 C321.485362,217.948718 326.923077,212.447879 326.923077,205.662393 C326.923077,198.876908 321.485362,193.376068 314.777743,193.376068" id="Fill-35" fill="#33B57E"></path>
            <path d="M470.08547,270.649403 C470.08547,284.850646 468.50028,298.676029 465.516759,311.965812 L344.964444,311.965812 C338.343394,311.965812 332.974302,306.567523 332.974302,299.908537 C332.974302,293.251117 338.343394,287.851262 344.964444,287.851262 L359.977036,287.851262 C366.596529,287.851262 371.965621,282.452973 371.965621,275.793986 C371.965621,269.135 366.596529,263.736711 359.977036,263.736711 L308.997132,263.736711 C302.377639,263.736711 297.008547,258.336856 297.008547,251.679436 C297.008547,245.02045 302.377639,239.622161 308.997132,239.622161 L383.954206,239.622161 C390.573699,239.622161 395.942791,234.222306 395.942791,227.56332 C395.942791,220.905899 390.573699,215.506044 383.954206,215.506044 L357.617937,215.506044 C350.998444,215.506044 345.629352,210.107755 345.629352,203.448769 C345.629352,196.791349 350.998444,191.391494 357.617937,191.391494 L420.586426,191.391494 C427.205919,191.391494 432.575011,185.993205 432.575011,179.334219 C432.575011,172.675233 427.205919,167.276944 420.586426,167.276944 L383.594502,167.276944 C376.973452,167.276944 371.605917,161.878654 371.605917,155.219668 C371.605917,148.560682 376.973452,143.162393 383.594502,143.162393 L419.960447,143.162393 C451.05073,176.507438 470.08547,221.347535 470.08547,270.649403" id="Fill-36" fill="#33B57E"></path>
            <path d="M433.760684,384.402642 C401.90567,425.498354 353.053083,452.900159 297.67379,456.196581 L295.039659,456.196581 C288.394144,456.196581 283.003945,450.839312 283.003945,444.230925 C283.003945,437.624092 288.394144,432.265268 295.039659,432.265268 L327.804503,432.265268 C334.450018,432.265268 339.840217,426.907999 339.840217,420.299612 C339.840217,413.691225 334.450018,408.333955 327.804503,408.333955 L316.209634,408.333955 C309.562556,408.333955 304.17392,402.975131 304.17392,396.368298 C304.17392,389.759911 309.562556,384.402642 316.209634,384.402642 L325.570572,384.402642 C332.21765,384.402642 337.606286,379.043818 337.606286,372.436985 C337.606286,365.828598 332.21765,360.471329 325.570572,360.471329 L282.33486,360.471329 C275.689344,360.471329 270.299145,355.112505 270.299145,348.504118 C270.299145,341.897285 275.689344,336.538462 282.33486,336.538462 L381.296913,336.538462 C387.943992,336.538462 393.332628,341.897285 393.332628,348.504118 C393.332628,355.112505 387.943992,360.471329 381.296913,360.471329 L374.610753,360.471329 C367.963674,360.471329 362.575039,365.828598 362.575039,372.436985 C362.575039,379.043818 367.963674,384.402642 374.610753,384.402642 L433.760684,384.402642" id="Fill-37" fill="#33B57E"></path>
            <path d="M459.401709,336.538462 C456.227506,345.029342 452.454456,353.247353 448.135118,361.111111 L433.202185,361.111111 C426.430126,361.111111 420.940171,355.609033 420.940171,348.823988 C420.940171,342.040539 426.430126,336.538462 433.202185,336.538462 L459.401709,336.538462" id="Fill-38" fill="#33B57E"></path>
            <path d="M226.4023,384.615385 L192.401119,384.615385 C185.859057,384.615385 180.555556,390.116224 180.555556,396.901709 C180.555556,403.687195 185.859057,409.188034 192.401119,409.188034 L226.4023,409.188034 C232.944362,409.188034 238.247863,403.687195 238.247863,396.901709 C238.247863,390.116224 232.944362,384.615385 226.4023,384.615385" id="Fill-39" fill="#33B57E"></path>
            <path d="M162.322823,205.128205 L113.247863,205.128205 C123.929619,176.983062 141.079695,152.13431 162.852204,132.478632 L194.314073,132.478632 C197.601479,132.478632 200.560145,133.83745 202.711622,136.029802 C204.863098,138.223727 206.196581,141.237031 206.196581,144.586895 C206.196581,151.27404 200.876539,156.695157 194.314073,156.695157 L159.695985,156.695157 C156.408578,156.695157 153.451456,158.053975 151.299979,160.246326 C149.14696,162.440251 147.813476,165.453555 147.813476,168.803419 C147.813476,175.490564 153.135062,180.911681 159.695985,180.911681 L162.322823,180.911681 C165.611773,180.911681 168.581243,182.270499 170.734262,184.464423 C172.885739,186.656775 174.206875,189.67008 174.206875,193.019943 C174.206875,199.707088 168.89918,205.128205 162.322823,205.128205" id="Fill-40" fill="#CAA962"></path>
            <path d="M230.769231,240.742051 C230.769231,247.427479 225.423366,252.850051 218.829047,252.850051 L168.720289,252.850051 C165.415376,252.850051 162.4439,254.20884 160.281981,256.401144 C158.118511,258.593449 156.778555,261.60826 156.778555,264.958051 C156.778555,271.643479 162.125971,277.066051 168.720289,277.066051 L182.941809,277.066051 C186.245172,277.066051 189.216648,278.42484 191.380118,280.617144 C193.542037,282.811021 194.881993,285.82426 194.881993,289.174051 C194.881993,295.861052 189.536128,301.282051 182.941809,301.282051 L101.627904,301.282051 C100.129759,291.717062 99.3589744,281.895726 99.3589744,271.899825 C99.3589744,257.006623 101.07114,242.517598 104.321773,228.632479 L218.829047,228.632479 C225.423366,228.632479 230.769231,234.055051 230.769231,240.742051" id="Fill-41" fill="#CAA962"></path>
            <polyline id="Fill-42" fill="#2C5638" points="396.367521 259.615385 383.547009 287.393162 409.188034 287.393162 396.367521 259.615385"></polyline>
            <path d="M395.299145,288.461538 L395.299145,299.064723 C395.299145,299.699858 395.932868,300.213675 396.712295,300.213675 L399.229632,300.213675 C400.009058,300.213675 400.641026,299.699858 400.641026,299.064723 L400.641026,288.461538 L395.299145,288.461538" id="Fill-43" fill="#3F2D2D"></path>
            <polyline id="Fill-44" fill="#347546" points="396.901709 253.205128 387.820513 274.57265 405.982906 274.57265 396.901709 253.205128"></polyline>
            <polyline id="Fill-45" fill="#2C5638" points="222.222222 360.042735 212.606838 383.547009 231.837607 383.547009 222.222222 360.042735"></polyline>
            <path d="M221.153846,383.547009 L221.153846,392.221865 C221.153846,392.740777 221.532865,393.162393 222.002188,393.162393 L223.511905,393.162393 C223.979955,393.162393 224.358974,392.740777 224.358974,392.221865 L224.358974,383.547009 L221.153846,383.547009" id="Fill-46" fill="#3F2D2D"></path>
            <polyline id="Fill-47" fill="#347546" points="222.22146 355.769231 214.74359 371.794872 229.700855 371.794872 222.22146 355.769231"></polyline>
            <polyline id="Fill-48" fill="#2C5638" points="436.965812 319.444444 427.350427 342.948718 446.581197 342.948718 436.965812 319.444444"></polyline>
            <path d="M436.965812,341.880342 L436.965812,350.556471 C436.965812,351.075459 437.344831,351.495726 437.812882,351.495726 L439.323871,351.495726 C439.791921,351.495726 440.17094,351.075459 440.17094,350.556471 L440.17094,341.880342 L436.965812,341.880342" id="Fill-49" fill="#3F2D2D"></path>
            <polyline id="Fill-50" fill="#347546" points="436.966574 313.034188 429.487179 329.059829 444.444444 329.059829 436.966574 313.034188"></polyline>
            <polyline id="Fill-51" fill="#2C5638" points="336.538462 235.042735 329.059829 251.068376 344.017094 251.068376 336.538462 235.042735"></polyline>
            <path d="M336.538462,251.068376 L336.538462,257.814824 C336.538462,258.219733 336.791436,258.547009 337.103242,258.547009 L338.110433,258.547009 C338.422239,258.547009 338.675214,258.219733 338.675214,257.814824 L338.675214,251.068376 L336.538462,251.068376" id="Fill-52" fill="#3F2D2D"></path>
            <polyline id="Fill-53" fill="#347546" points="337.606838 230.769231 332.264957 242.521368 342.948718 242.521368 337.606838 230.769231"></polyline>
            <polyline id="Fill-54" fill="#33854C" points="336.538462 227.564103 333.333333 235.042735 339.74359 235.042735 336.538462 227.564103"></polyline>
            <polyline id="Fill-55" fill="#2C5638" points="381.409456 381.410256 369.65812 407.051282 393.162393 407.051282 381.409456 381.410256"></polyline>
            <path d="M378.205128,405.982906 L378.205128,416.587072 C378.205128,417.221684 378.838484,417.735043 379.619041,417.735043 L382.135032,417.735043 C382.91559,417.735043 383.547009,417.221684 383.547009,416.587072 L383.547009,405.982906 L378.205128,405.982906" id="Fill-56" fill="#3F2D2D"></path>
            <polyline id="Fill-57" fill="#347546" points="379.807692 375 371.794872 393.162393 387.820513 393.162393 379.807692 375"></polyline>
            <polyline id="Fill-58" fill="#33854C" points="378.739316 371.794872 373.931624 383.547009 383.547009 383.547009 378.739316 371.794872"></polyline>
            <polyline id="Fill-59" fill="#2C5638" points="301.815459 422.008547 294.871795 438.034188 308.760684 438.034188 301.815459 422.008547"></polyline>
            <path d="M300.213675,435.897436 L300.213675,442.645397 C300.213675,443.048754 300.466712,443.376068 300.778534,443.376068 L301.785568,443.376068 C302.097391,443.376068 302.350427,443.048754 302.350427,442.645397 L302.350427,435.897436 L300.213675,435.897436" id="Fill-60" fill="#3F2D2D"></path>
            <polyline id="Fill-61" fill="#347546" points="301.816239 417.735043 297.008547 428.418803 306.623932 428.418803 301.816239 417.735043"></polyline>
            <polyline id="Fill-62" fill="#33854C" points="301.282051 415.598291 298.076923 423.076923 304.487179 423.076923 301.282051 415.598291"></polyline>
            <polyline id="Fill-63" fill="#2C5638" points="420.940171 181.623932 413.461538 197.649573 428.418803 197.649573 420.940171 181.623932"></polyline>
            <path d="M419.871795,198.717949 L419.871795,205.465919 C419.871795,205.869305 420.124769,206.196581 420.436575,206.196581 L421.443767,206.196581 C421.755572,206.196581 422.008547,205.869305 422.008547,205.465919 L422.008547,198.717949 L419.871795,198.717949" id="Fill-64" fill="#3F2D2D"></path>
            <polyline id="Fill-65" fill="#347546" points="420.940927 177.350427 415.598291 189.102564 426.282051 189.102564 420.940927 177.350427"></polyline>
            <polyline id="Fill-66" fill="#33854C" points="419.871795 175.213675 416.666667 182.692308 423.076923 182.692308 419.871795 175.213675"></polyline>
            <path d="M427.350427,230.769231 C427.350427,233.719274 429.742265,236.111111 432.692308,236.111111 C432.692308,233.161068 430.30047,230.769231 427.350427,230.769231" id="Fill-67" fill="#4FB16A"></path>
            <path d="M435.897436,230.769231 C435.897436,233.719274 433.505599,236.111111 430.555556,236.111111 C430.555556,233.161068 432.947393,230.769231 435.897436,230.769231" id="Fill-68" fill="#4FB16A"></path>
            <path d="M455.128205,268.162393 C455.128205,271.112436 457.520784,273.504274 460.470085,273.504274 C460.470085,270.55423 458.079163,268.162393 455.128205,268.162393" id="Fill-69" fill="#4FB16A"></path>
            <path d="M465.811966,268.162393 C465.811966,271.112436 463.420129,273.504274 460.470085,273.504274 C460.470085,270.55423 462.861923,268.162393 465.811966,268.162393" id="Fill-70" fill="#4FB16A"></path>
            <path d="M350.42735,301.282051 C350.42735,304.232094 352.819188,306.623932 355.769231,306.623932 C355.769231,303.673889 353.377393,301.282051 350.42735,301.282051" id="Fill-71" fill="#4FB16A"></path>
            <path d="M361.111111,301.282051 C361.111111,304.232094 358.719274,306.623932 355.769231,306.623932 C355.769231,303.673889 358.161068,301.282051 361.111111,301.282051" id="Fill-72" fill="#4FB16A"></path>
            <path d="M339.74359,385.683761 C339.74359,388.633804 342.134512,391.025641 345.08547,391.025641 C345.08547,388.075598 342.692891,385.683761 339.74359,385.683761" id="Fill-73" fill="#4FB16A"></path>
            <path d="M348.290598,385.683761 C348.290598,388.633804 345.898761,391.025641 342.948718,391.025641 C342.948718,388.075598 345.340555,385.683761 348.290598,385.683761" id="Fill-74" fill="#4FB16A"></path>
            <path d="M183.760684,394.230769 C183.760684,397.180812 186.152521,399.57265 189.102564,399.57265 C189.102564,396.622607 186.710727,394.230769 183.760684,394.230769" id="Fill-75" fill="#4FB16A"></path>
            <path d="M195.512821,394.230769 C195.512821,397.180812 193.121898,399.57265 190.17094,399.57265 C190.17094,396.622607 192.561862,394.230769 195.512821,394.230769" id="Fill-76" fill="#4FB16A"></path>
            <path d="M316.239316,436.965812 C316.239316,439.915855 318.630238,442.307692 321.581197,442.307692 C321.581197,439.357649 319.190274,436.965812 316.239316,436.965812" id="Fill-77" fill="#4FB16A"></path>
            <path d="M326.923077,436.965812 C326.923077,439.915855 324.53124,442.307692 321.581197,442.307692 C321.581197,439.357649 323.973034,436.965812 326.923077,436.965812" id="Fill-78" fill="#4FB16A"></path>
            <path d="M369.65812,348.290598 C369.65812,351.241556 372.049042,353.632479 375,353.632479 C375,350.683177 372.609078,348.290598 369.65812,348.290598" id="Fill-79" fill="#4FB16A"></path>
            <path d="M379.273504,348.290598 C379.273504,351.241556 376.881667,353.632479 373.931624,353.632479 C373.931624,350.683177 376.323461,348.290598 379.273504,348.290598" id="Fill-80" fill="#4FB16A"></path>
            <path d="M399.57265,398.504274 C399.57265,401.454317 401.964487,403.846154 404.91453,403.846154 C404.91453,400.896111 402.522693,398.504274 399.57265,398.504274" id="Fill-81" fill="#4FB16A"></path>
            <path d="M410.25641,398.504274 C410.25641,401.454317 407.864573,403.846154 404.91453,403.846154 C404.91453,400.896111 407.306367,398.504274 410.25641,398.504274" id="Fill-82" fill="#4FB16A"></path>
            <path d="M384.615385,143.162393 C384.615385,146.113351 387.006307,148.504274 389.957265,148.504274 C389.957265,145.554972 387.566343,143.162393 384.615385,143.162393" id="Fill-83" fill="#4FB16A"></path>
            <path d="M395.299145,143.162393 C395.299145,146.113351 392.907308,148.504274 389.957265,148.504274 C389.957265,145.554972 392.349102,143.162393 395.299145,143.162393" id="Fill-84" fill="#4FB16A"></path>
            <path d="M317.307692,287.836726 C317.307692,304.603989 287.393162,350.42735 287.393162,350.42735 C287.393162,350.42735 257.478632,304.603989 257.478632,287.836726 C257.478632,271.071019 270.870887,257.478632 287.393162,257.478632 C303.913905,257.478632 317.307692,271.071019 317.307692,287.836726" id="Fill-85" fill="#EE6365"></path>
            <path d="M305.555556,286.858974 C305.555556,296.595054 297.663774,304.487179 287.928119,304.487179 C278.192463,304.487179 270.299145,296.595054 270.299145,286.858974 C270.299145,277.122895 278.192463,269.230769 287.928119,269.230769 C297.663774,269.230769 305.555556,277.122895 305.555556,286.858974" id="Fill-86" fill="#F7F8F7"></path>
            <path d="M504.273504,116.880285 C504.273504,143.66812 456.19736,216.880342 456.19736,216.880342 C456.19736,216.880342 408.119658,143.66812 408.119658,116.880285 C408.119658,90.0924505 429.64508,68.3760684 456.19736,68.3760684 C482.74964,68.3760684 504.273504,90.0924505 504.273504,116.880285" id="Fill-87" fill="#EE6365"></path>
            <path d="M482.905983,116.98796 C482.905983,132.623427 470.469772,145.299145 455.128205,145.299145 C439.786638,145.299145 427.350427,132.623427 427.350427,116.98796 C427.350427,101.350932 439.786638,88.6752137 455.128205,88.6752137 C470.469772,88.6752137 482.905983,101.350932 482.905983,116.98796" id="Fill-88" fill="#F7F8F7"></path>
            <path d="M159.188034,185.713598 C159.188034,209.802843 116.452991,275.641026 116.452991,275.641026 C116.452991,275.641026 73.7179487,209.802843 73.7179487,185.713598 C73.7179487,161.622784 92.8513902,142.094017 116.452991,142.094017 C140.054593,142.094017 159.188034,161.622784 159.188034,185.713598" id="Fill-89" fill="#EE6365"></path>
            <path d="M141.025641,185.898221 C141.025641,200.058576 129.784576,211.538462 115.918803,211.538462 C102.053031,211.538462 90.8119658,200.058576 90.8119658,185.898221 C90.8119658,171.736295 102.053031,160.25641 115.918803,160.25641 C129.784576,160.25641 141.025641,171.736295 141.025641,185.898221" id="Fill-90" fill="#F7F8F7"></path>
            <g id="Group-2"></g>
            <path d="M471.335887,222.75641 C470.038515,222.75641 468.801739,222.999913 467.655079,223.426813 C467.662848,223.201804 467.689262,222.98296 467.689262,222.75641 C467.689262,211.250147 458.286035,201.923077 446.685821,201.923077 C436.863085,201.923077 428.637592,208.620937 426.342719,217.65827 C424.33995,216.556344 422.037309,215.922929 419.583956,215.922929 C413.193428,215.922929 407.8206,220.190387 406.170529,226.005165 C404.461416,224.638161 402.290843,223.816725 399.924499,223.816725 C394.419603,223.816725 389.957265,228.242922 389.957265,233.703234 C389.957265,239.163546 394.419603,243.589744 399.924499,243.589744 L471.335887,243.589744 C477.135993,243.589744 481.837607,238.926209 481.837607,233.173077 C481.837607,227.419945 477.135993,222.75641 471.335887,222.75641" id="Fill-103" fill="#F7F8F7"></path>
            <path d="M248.8153,95.7656314 C247.217909,95.7656314 245.695468,96.0703793 244.283893,96.6013318 C242.84265,85.7262303 233.608075,77.3283837 222.401354,77.3283837 C218.457063,77.3283837 214.761047,78.3808635 211.553773,80.2030674 C208.797766,63.1968781 194.133935,50.2136752 176.450208,50.2136752 C159.648715,50.2136752 145.578245,61.9339023 141.849438,77.6881118 C139.869485,77.1116042 137.783352,76.7848642 135.617583,76.7848642 C123.263177,76.7848642 113.247863,86.8603952 113.247863,99.2906534 C113.247863,111.719341 123.263177,121.794872 135.617583,121.794872 L248.8153,121.794872 C255.959057,121.794872 261.752137,115.966961 261.752137,108.780252 C261.752137,101.591971 255.959057,95.7656314 248.8153,95.7656314" id="Fill-104" fill="#F7F8F7"></path>
            <path d="M167.686261,326.979692 C162.371568,326.979692 157.561778,329.180693 154.07406,332.739826 C150.435646,324.285692 142.189405,318.376068 132.585361,318.376068 C121.733817,318.376068 112.626909,325.92213 109.934608,336.160602 C108.645162,335.793238 107.293574,335.581726 105.889165,335.581726 C97.5621389,335.581726 90.8119658,342.493251 90.8119658,351.017359 C90.8119658,359.543057 97.5621389,366.452991 105.889165,366.452991 L167.686261,366.452991 C178.33429,366.452991 186.965812,357.615591 186.965812,346.715547 C186.965812,335.815503 178.33429,326.979692 167.686261,326.979692" id="Fill-105" fill="#F7F8F7"></path>
            <path d="M286.362504,157.141544 C290.495826,157.141544 294.237948,158.804648 296.949856,161.493823 C299.780215,155.104901 306.192164,150.641026 313.66238,150.641026 C322.103584,150.641026 329.185717,156.341767 331.280432,164.077601 C332.282591,163.801708 333.334625,163.642063 334.425622,163.642063 C340.903031,163.642063 346.153846,168.862317 346.153846,175.303937 C346.153846,181.745558 340.903031,186.965812 334.425622,186.965812 L286.362504,186.965812 C278.080274,186.965812 271.367521,180.290148 271.367521,172.053678 C271.367521,163.817208 278.080274,157.141544 286.362504,157.141544" id="Fill-106" fill="#F7F8F7"></path>
        </g>
    </g>
</svg>