<?xml version="1.0" encoding="UTF-8"?>
<svg width="128px" height="145px" viewBox="0 0 128 145" version="1.1" xmlns="http://www.w3.org/2000/svg" xmlns:xlink="http://www.w3.org/1999/xlink">
    <!-- Generator: Sketch 47.1 (45422) - http://www.bohemiancoding.com/sketch -->
    <title>pizza</title>
    <desc>Created with Sketch.</desc>
    <defs>
        <filter x="-5.0%" y="-4.4%" width="109.9%" height="108.8%" filterUnits="objectBoundingBox" id="filter-1">
            <feOffset dx="0" dy="0" in="SourceAlpha" result="shadowOffsetOuter1"></feOffset>
            <feGaussianBlur stdDeviation="2" in="shadowOffsetOuter1" result="shadowBlurOuter1"></feGaussianBlur>
            <feColorMatrix values="0 0 0 0 0   0 0 0 0 0   0 0 0 0 0  0 0 0 0.5 0" type="matrix" in="shadowBlurOuter1" result="shadowMatrixOuter1"></feColorMatrix>
            <feMerge>
                <feMergeNode in="shadowMatrixOuter1"></feMergeNode>
                <feMergeNode in="SourceGraphic"></feMergeNode>
            </feMerge>
        </filter>
    </defs>
    <g id="Page-1" stroke="none" stroke-width="1" fill="none" fill-rule="evenodd">
        <g id="onboarding-2" transform="translate(-172.000000, -163.000000)" fill-rule="nonzero">
            <g id="pizza" filter="url(#filter-1)" transform="translate(175.467188, 166.943482)">
                <path d="M77.9075136,46.8886066 C76.612213,47.4417281 75.1777893,47.7521328 73.6665169,47.7521328 C67.9317374,47.7521328 63.2829117,43.3213519 63.2829117,37.8555519 C63.2829117,33.8963133 65.7229953,30.4821141 69.2471777,28.8992774 L59.6834703,9.03287109 L56.9145266,9.03287109 L26.2131442,72.8077785 C30.7456367,74.5845865 33.9380441,78.8327616 33.9380441,83.7934279 C33.9380441,90.3523374 28.3593473,95.669123 21.4779298,95.669123 C19.4438202,95.669123 17.5255137,95.2013691 15.829539,94.3777485 L2.92025647,121.193028 C38.3788479,138.786837 78.219414,138.786837 113.67774,121.193028 L77.9075136,46.8886066 Z" id="Shape" fill="#FFDA44"></path>
                <path d="M120.876744,120.335352 C83.1129388,139.073487 40.684044,139.073487 2.92052146,120.335352 L9.55550428,106.552145 C43.376419,121.183992 80.4205638,121.183992 114.241761,106.552145 L120.876744,120.335352 Z" id="Shape" fill="#F1844A"></path>
                <path d="M99.8388517,115.111722 C102.575996,114.057003 105.698709,115.251644 106.930146,117.808884 L109.509883,123.168101 C110.905352,122.535421 112.295521,121.879504 113.67827,121.19328 L107.448213,108.251248 C75.6913517,121.990129 40.9079702,121.990129 9.15084359,108.251248 L6.72957468,113.280865 C36.7854266,126.180213 69.5286035,126.791678 99.8388517,115.111722 Z" id="Shape" fill="#DD7903"></path>
                <path d="M115.554428,107.401412 L83.5782199,40.9778873 C82.1760893,41.5766275 80.6233616,41.9126328 78.9874469,41.9126328 C72.7796915,41.9126328 67.7474539,37.1164232 67.7474539,31.1998313 C67.7474539,26.9140546 70.3887834,23.2182693 74.2036228,21.5048882 L63.8511486,0 L60.8538363,0 L27.6203575,69.0347428 C32.5266672,70.9580931 35.9823684,75.5566364 35.9823684,80.9264336 C35.9823684,88.0262892 29.9435686,93.7815766 22.4946062,93.7815766 C20.2927334,93.7815766 18.2162147,93.2752447 16.3803644,92.383696 L9.15084359,107.401412 C43.5265655,122.273407 81.1787063,122.273407 115.554428,107.401412 Z" id="Shape" fill="#FFD347"></path>
                <path d="M77.9075136,46.8886066 C76.612213,47.4417281 75.1777893,47.7521328 73.6665169,47.7521328 C72.1292748,47.7521328 70.6710015,47.4311203 69.3584761,46.8595615 L93.9980738,98.0427466 C95.3182841,100.78537 93.9633593,104.027572 91.0234931,105.14619 C64.5792723,115.207697 36.3079038,115.930291 9.60054189,107.31574 L9.1503136,108.250995 C40.9071752,121.989876 75.6902917,121.989876 107.447418,108.250995 L77.9075136,46.8886066 Z" id="Shape" fill="#EEBF00"></path>
                <ellipse id="Oval" fill="#EE6365" cx="74.2206236" cy="94.3484507" rx="12.4601143" ry="11.8756951"></ellipse>
                <path d="M79.8154852,83.7388734 C80.6626776,85.3426732 81.1428504,87.1530726 81.1428504,89.0713181 C81.1428504,95.6302277 75.5641536,100.947013 68.6827362,100.947013 C66.6700912,100.947013 64.7708645,100.489362 63.0878746,99.6819057 C65.137884,103.561838 69.3518512,106.225156 74.2206236,106.225156 C81.102306,106.225156 86.6807379,100.908118 86.6807379,94.349461 C86.6807379,89.708797 83.8863545,85.6929834 79.8154852,83.7388734 Z" id="Shape" fill="#E21220"></path>
                <ellipse id="Oval" fill="#EE6365" cx="51.3769041" cy="60.2887955" rx="10.3836052" ry="9.89658097"></ellipse>
                <path d="M55.409614,51.1658269 C55.9327162,52.3475874 56.2223569,53.6465389 56.2223569,55.0096424 C56.2223569,60.4754424 51.5735312,64.9062234 45.8387517,64.9062234 C44.408303,64.9062234 43.0456933,64.6304203 41.8057768,64.1316007 C43.3801183,67.6879951 47.0723083,70.1843662 51.3766391,70.1843662 C57.1114186,70.1843662 61.7602443,65.7535853 61.7602443,60.2877852 C61.7602443,56.1853412 59.1412884,52.6660742 55.409614,51.1658269 Z" id="Shape" fill="#E21220"></path>
                <g id="Group" transform="translate(40.544396, 63.375921)" fill="#33B57E">
                    <ellipse id="Oval" cx="5.0177002" cy="29.9751435" rx="4.84571777" ry="4.61843813"></ellipse>
                    <ellipse id="Oval" cx="34.2298047" cy="4.83008918" rx="4.84571777" ry="4.61843813"></ellipse>
                </g>
                <path d="M15.0194461,108.488661 L13.4710742,112.161993 C27.9772229,117.716697 43.0597381,120.533323 58.2991309,120.533575 C58.2999259,120.533575 58.3007209,120.533575 58.3015159,120.533575 C73.5417037,120.533575 88.6234239,117.71695 103.126923,112.161993 L101.578286,108.488913 C87.5682096,113.854949 73.0066767,116.5756 58.298601,116.575095 C43.5926452,116.574842 29.0311122,113.854192 15.0194461,108.488661 Z" id="Shape" fill="#474A4F"></path>
                <path d="M59.6834703,94.349461 C59.6834703,101.989357 66.2044931,108.204523 74.2203586,108.204523 C82.2362241,108.204523 88.7572469,101.989357 88.7572469,94.349461 C88.7572469,86.7098177 82.2362241,80.4943992 74.2203586,80.4943992 C66.2044931,80.4943992 59.6834703,86.7098177 59.6834703,94.349461 Z M84.6039638,94.349461 C84.6039638,99.8064212 79.9461283,104.246042 74.2203586,104.246042 C68.494589,104.246042 63.8367534,99.8066737 63.8367534,94.349461 C63.8367534,88.8927533 68.494589,84.45288 74.2203586,84.45288 C79.9461283,84.45288 84.6039638,88.8925008 84.6039638,94.349461 Z" id="Shape" fill="#474A4F"></path>
                <path d="M51.3769041,72.1634803 C58.2474567,72.1634803 63.8370184,66.8360869 63.8370184,60.2877852 C63.8370184,53.7394835 58.2474567,48.4120901 51.3769041,48.4120901 C44.5063516,48.4120901 38.9167899,53.7394835 38.9167899,60.2877852 C38.9167899,66.8360869 44.5060866,72.1634803 51.3769041,72.1634803 Z M51.3769041,52.370571 C55.9573609,52.370571 59.6837353,55.9221666 59.6837353,60.2877852 C59.6837353,64.6534039 55.9573609,68.2049995 51.3769041,68.2049995 C46.7964474,68.2049995 43.070073,64.6534039 43.070073,60.2877852 C43.070073,55.9221666 46.7964474,52.370571 51.3769041,52.370571 Z" id="Shape" fill="#474A4F"></path>
                <path d="M45.5620958,99.9486163 C49.3790989,99.9486163 52.4843226,96.988785 52.4843226,93.3510641 C52.4843226,89.7130906 49.3788339,86.7535118 45.5620958,86.7535118 C41.7450927,86.7535118 38.639869,89.7133432 38.639869,93.3510641 C38.639604,96.9890375 41.7450927,99.9486163 45.5620958,99.9486163 Z M45.5620958,90.7119926 C47.0890031,90.7119926 48.3310395,91.8957736 48.3310395,93.3510641 C48.3310395,94.8063545 47.0890031,95.9901355 45.5620958,95.9901355 C44.0351886,95.9901355 42.7931521,94.8063545 42.7931521,93.3510641 C42.7931521,91.8957736 44.0351886,90.7119926 45.5620958,90.7119926 Z" id="Shape" fill="#474A4F"></path>
                <path d="M67.8519735,68.2049995 C67.8519735,71.842973 70.9574622,74.8025518 74.7742004,74.8025518 C78.5912035,74.8025518 81.6964272,71.8427204 81.6964272,68.2049995 C81.6964272,64.567026 78.5909385,61.6074472 74.7742004,61.6074472 C70.9571973,61.6071947 67.8519735,64.567026 67.8519735,68.2049995 Z M77.5431441,68.2049995 C77.5431441,69.6602899 76.3011076,70.8440709 74.7742004,70.8440709 C73.2472931,70.8440709 72.0052566,69.6602899 72.0052566,68.2049995 C72.0052566,66.7497091 73.2472931,65.5659281 74.7742004,65.5659281 C76.3011076,65.5659281 77.5431441,66.7497091 77.5431441,68.2049995 Z" id="Shape" fill="#474A4F"></path>
                <path d="M78.9367583,44.2800958 L77.0582013,45.0822483 C75.9854973,45.5404046 74.8444243,45.7725136 73.6665169,45.7725136 C69.0860601,45.7725136 65.3596857,42.220918 65.3596857,37.8552993 C65.3596857,34.8042913 67.2332078,31.9914538 70.1322645,30.6897241 L71.9922718,29.854738 L61.0156054,7.05350438 L55.5829214,7.05350438 L23.4243258,73.8546682 L25.423191,74.6381307 C29.3342677,76.1712117 31.86127,79.7647334 31.86127,83.7929227 C31.86127,89.2498829 27.2034345,93.6895037 21.4776648,93.6895037 C19.8246195,93.6895037 18.2412681,93.3275753 16.77213,92.6140739 L14.8440187,91.6775559 L0.209081883,122.079285 L1.96150076,122.94862 C19.9070332,131.853118 38.8616707,136.367751 58.2991309,136.367751 C77.7365912,136.367751 96.6912286,131.853118 114.636761,122.94862 L116.38918,122.079032 L78.9367583,44.2800958 Z M58.2991309,132.409271 C40.1691612,132.409271 22.4621252,128.334104 5.63805595,120.294142 L16.8807784,96.9402921 C18.3544214,97.4108242 19.8932535,97.6487422 21.4776648,97.6487422 C29.4935303,97.6487422 36.0145531,91.4335762 36.0145531,83.7936804 C36.0145531,78.8491784 33.2956937,74.3726829 28.9359787,71.8982851 L58.2466617,11.0119852 L58.3516002,11.0119852 L66.5746926,28.0935891 C63.260652,30.2901633 61.2066676,33.9417754 61.2066676,37.8555519 C61.2066676,44.4038536 66.7962293,49.731247 73.6667819,49.731247 C74.7373659,49.731247 75.7878102,49.6031956 76.807515,49.3496184 L110.960206,120.293889 C94.1361367,128.333851 76.4291007,132.409271 58.2991309,132.409271 Z" id="Shape" fill="#474A4F"></path>
            </g>
        </g>
    </g>
</svg>