<?xml version="1.0" encoding="UTF-8"?>
<svg width="122px" height="138px" viewBox="0 0 122 138" version="1.1" xmlns="http://www.w3.org/2000/svg" xmlns:xlink="http://www.w3.org/1999/xlink">
    <!-- Generator: Sketch 47.1 (45422) - http://www.bohemiancoding.com/sketch -->
    <title>pizza</title>
    <desc>Created with Sketch.</desc>
    <defs></defs>
    <g id="Page-1" stroke="none" stroke-width="1" fill="none" fill-rule="evenodd">
        <g id="pizza" fill-rule="nonzero">
            <path d="M78.3747016,47.8320886 C77.079401,48.3852101 75.6449773,48.6956148 74.1337049,48.6956148 C68.3989254,48.6956148 63.7500997,44.2648339 63.7500997,38.7990339 C63.7500997,34.8397953 66.1901833,31.4255961 69.7143657,29.8427594 L60.1506583,9.97635309 L57.3817146,9.97635309 L26.6803322,73.7512605 C31.2128247,75.5280685 34.4052321,79.7762436 34.4052321,84.7369099 C34.4052321,91.2958194 28.8265353,96.612605 21.9451178,96.612605 C19.9110082,96.612605 17.9927017,96.1448511 16.296727,95.3212305 L3.38744447,122.13651 C38.8460359,139.730319 78.686602,139.730319 114.144928,122.13651 L78.3747016,47.8320886 Z" id="Shape" fill="#FFDA44"></path>
            <path d="M121.343932,121.278834 C83.5801268,140.016969 41.151232,140.016969 3.38770946,121.278834 L10.0226923,107.495627 C43.843607,122.127474 80.8877518,122.127474 114.708949,107.495627 L121.343932,121.278834 Z" id="Shape" fill="#F1844A"></path>
            <path d="M100.30604,116.055204 C103.043184,115.000485 106.165897,116.195126 107.397334,118.752366 L109.977071,124.111583 C111.37254,123.478903 112.762709,122.822986 114.145458,122.136762 L107.915401,109.19473 C76.1585397,122.933611 41.3751582,122.933611 9.61803159,109.19473 L7.19676268,114.224347 C37.2526146,127.123695 69.9957915,127.73516 100.30604,116.055204 Z" id="Shape" fill="#DD7903"></path>
            <path d="M116.021616,108.344894 L84.0454079,41.9213693 C82.6432773,42.5201095 81.0905496,42.8561148 79.4546349,42.8561148 C73.2468795,42.8561148 68.2146419,38.0599052 68.2146419,32.1433133 C68.2146419,27.8575366 70.8559714,24.1617513 74.6708108,22.4483702 L64.3183366,0.943482 L61.3210243,0.943482 L28.0875455,69.9782248 C32.9938552,71.9015751 36.4495564,76.5001184 36.4495564,81.8699156 C36.4495564,88.9697712 30.4107566,94.7250586 22.9617942,94.7250586 C20.7599214,94.7250586 18.6834027,94.2187267 16.8475524,93.327178 L9.61803159,108.344894 C43.9937535,123.216889 81.6458943,123.216889 116.021616,108.344894 Z" id="Shape" fill="#FFD347"></path>
            <path d="M78.3747016,47.8320886 C77.079401,48.3852101 75.6449773,48.6956148 74.1337049,48.6956148 C72.5964628,48.6956148 71.1381895,48.3746023 69.8256641,47.8030435 L94.4652618,98.9862286 C95.7854721,101.728852 94.4305473,104.971054 91.4906811,106.089672 C65.0464603,116.151179 36.7750918,116.873773 10.0677299,108.259222 L9.6175016,109.194477 C41.3743632,122.933358 76.1574797,122.933358 107.914606,109.194477 L78.3747016,47.8320886 Z" id="Shape" fill="#EEBF00"></path>
            <ellipse id="Oval" fill="#EE6365" cx="74.6878116" cy="95.2919327" rx="12.4601143" ry="11.8756951"></ellipse>
            <path d="M80.2826732,84.6823554 C81.1298656,86.2861552 81.6100384,88.0965546 81.6100384,90.0148001 C81.6100384,96.5737097 76.0313416,101.890495 69.1499242,101.890495 C67.1372792,101.890495 65.2380525,101.432844 63.5550626,100.625388 C65.605072,104.50532 69.8190392,107.168638 74.6878116,107.168638 C81.569494,107.168638 87.1479259,101.8516 87.1479259,95.292943 C87.1479259,90.652279 84.3535425,86.6364654 80.2826732,84.6823554 Z" id="Shape" fill="#E21220"></path>
            <ellipse id="Oval" fill="#EE6365" cx="51.8440921" cy="61.2322775" rx="10.3836052" ry="9.89658097"></ellipse>
            <path d="M55.876802,52.1093089 C56.3999042,53.2910694 56.6895449,54.5900209 56.6895449,55.9531244 C56.6895449,61.4189244 52.0407192,65.8497054 46.3059397,65.8497054 C44.875491,65.8497054 43.5128813,65.5739023 42.2729648,65.0750827 C43.8473063,68.6314771 47.5394963,71.1278482 51.8438271,71.1278482 C57.5786066,71.1278482 62.2274323,66.6970673 62.2274323,61.2312672 C62.2274323,57.1288232 59.6084764,53.6095562 55.876802,52.1093089 Z" id="Shape" fill="#E21220"></path>
            <g id="Group" transform="translate(41.011584, 64.319403)" fill="#33B57E">
                <ellipse id="Oval" cx="5.0177002" cy="29.9751435" rx="4.84571777" ry="4.61843813"></ellipse>
                <ellipse id="Oval" cx="34.2298047" cy="4.83008918" rx="4.84571777" ry="4.61843813"></ellipse>
            </g>
            <path d="M15.4866341,109.432143 L13.9382622,113.105475 C28.4444109,118.660179 43.5269261,121.476805 58.7663189,121.477057 C58.7671139,121.477057 58.7679089,121.477057 58.7687039,121.477057 C74.0088917,121.477057 89.0906119,118.660432 103.594111,113.105475 L102.045474,109.432395 C88.0353976,114.798431 73.4738647,117.519082 58.765789,117.518577 C44.0598332,117.518324 29.4983002,114.797674 15.4866341,109.432143 Z" id="Shape" fill="#474A4F"></path>
            <path d="M60.1506583,95.292943 C60.1506583,102.932839 66.6716811,109.148005 74.6875466,109.148005 C82.7034121,109.148005 89.2244349,102.932839 89.2244349,95.292943 C89.2244349,87.6532997 82.7034121,81.4378812 74.6875466,81.4378812 C66.6716811,81.4378812 60.1506583,87.6532997 60.1506583,95.292943 Z M85.0711518,95.292943 C85.0711518,100.749903 80.4133163,105.189524 74.6875466,105.189524 C68.961777,105.189524 64.3039414,100.750156 64.3039414,95.292943 C64.3039414,89.8362353 68.961777,85.396362 74.6875466,85.396362 C80.4133163,85.396362 85.0711518,89.8359828 85.0711518,95.292943 Z" id="Shape" fill="#474A4F"></path>
            <path d="M51.8440921,73.1069623 C58.7146447,73.1069623 64.3042064,67.7795689 64.3042064,61.2312672 C64.3042064,54.6829655 58.7146447,49.3555721 51.8440921,49.3555721 C44.9735396,49.3555721 39.3839779,54.6829655 39.3839779,61.2312672 C39.3839779,67.7795689 44.9732746,73.1069623 51.8440921,73.1069623 Z M51.8440921,53.314053 C56.4245489,53.314053 60.1509233,56.8656486 60.1509233,61.2312672 C60.1509233,65.5968859 56.4245489,69.1484815 51.8440921,69.1484815 C47.2636354,69.1484815 43.537261,65.5968859 43.537261,61.2312672 C43.537261,56.8656486 47.2636354,53.314053 51.8440921,53.314053 Z" id="Shape" fill="#474A4F"></path>
            <path d="M46.0292838,100.892098 C49.8462869,100.892098 52.9515106,97.932267 52.9515106,94.2945461 C52.9515106,90.6565726 49.8460219,87.6969938 46.0292838,87.6969938 C42.2122807,87.6969938 39.107057,90.6568252 39.107057,94.2945461 C39.106792,97.9325195 42.2122807,100.892098 46.0292838,100.892098 Z M46.0292838,91.6554746 C47.5561911,91.6554746 48.7982275,92.8392556 48.7982275,94.2945461 C48.7982275,95.7498365 47.5561911,96.9336175 46.0292838,96.9336175 C44.5023766,96.9336175 43.2603401,95.7498365 43.2603401,94.2945461 C43.2603401,92.8392556 44.5023766,91.6554746 46.0292838,91.6554746 Z" id="Shape" fill="#474A4F"></path>
            <path d="M68.3191615,69.1484815 C68.3191615,72.786455 71.4246502,75.7460338 75.2413884,75.7460338 C79.0583915,75.7460338 82.1636152,72.7862024 82.1636152,69.1484815 C82.1636152,65.510508 79.0581265,62.5509292 75.2413884,62.5509292 C71.4243853,62.5506767 68.3191615,65.510508 68.3191615,69.1484815 Z M78.0103321,69.1484815 C78.0103321,70.6037719 76.7682956,71.7875529 75.2413884,71.7875529 C73.7144811,71.7875529 72.4724446,70.6037719 72.4724446,69.1484815 C72.4724446,67.6931911 73.7144811,66.5094101 75.2413884,66.5094101 C76.7682956,66.5094101 78.0103321,67.6931911 78.0103321,69.1484815 Z" id="Shape" fill="#474A4F"></path>
            <path d="M79.4039463,45.2235778 L77.5253893,46.0257303 C76.4526853,46.4838866 75.3116123,46.7159956 74.1337049,46.7159956 C69.5532481,46.7159956 65.8268737,43.1644 65.8268737,38.7987813 C65.8268737,35.7477733 67.7003958,32.9349358 70.5994525,31.6332061 L72.4594598,30.79822 L61.4827934,7.99698638 L56.0501094,7.99698638 L23.8915138,74.7981502 L25.890379,75.5816127 C29.8014557,77.1146937 32.328458,80.7082154 32.328458,84.7364047 C32.328458,90.1933649 27.6706225,94.6329857 21.9448528,94.6329857 C20.2918075,94.6329857 18.7084561,94.2710573 17.239318,93.5575559 L15.3112067,92.6210379 L0.676269883,123.022767 L2.42868876,123.892102 C20.3742212,132.7966 39.3288587,137.311233 58.7663189,137.311233 C78.2037792,137.311233 97.1584166,132.7966 115.103949,123.892102 L116.856368,123.022514 L79.4039463,45.2235778 Z M58.7663189,133.352753 C40.6363492,133.352753 22.9293132,129.277586 6.10524395,121.237624 L17.3479664,97.8837741 C18.8216094,98.3543062 20.3604415,98.5922242 21.9448528,98.5922242 C29.9607183,98.5922242 36.4817411,92.3770582 36.4817411,84.7371624 C36.4817411,79.7926604 33.7628817,75.3161649 29.4031667,72.8417671 L58.7138497,11.9554672 L58.8187882,11.9554672 L67.0418806,29.0370711 C63.72784,31.2336453 61.6738556,34.8852574 61.6738556,38.7990339 C61.6738556,45.3473356 67.2634173,50.674729 74.1339699,50.674729 C75.2045539,50.674729 76.2549982,50.5466776 77.274703,50.2931004 L111.427394,121.237371 C94.6033247,129.277333 76.8962887,133.352753 58.7663189,133.352753 Z" id="Shape" fill="#474A4F"></path>
        </g>
    </g>
</svg>