<?xml version="1.0" encoding="UTF-8"?>
<svg width="167px" height="138px" viewBox="0 0 167 138" version="1.1" xmlns="http://www.w3.org/2000/svg" xmlns:xlink="http://www.w3.org/1999/xlink">
    <!-- Generator: Sketch 47.1 (45422) - http://www.bohemiancoding.com/sketch -->
    <title>vegetables</title>
    <desc>Created with Sketch.</desc>
    <defs></defs>
    <g id="Page-1" stroke="none" stroke-width="1" fill="none" fill-rule="evenodd">
        <g id="vegetables" transform="translate(-11.000000, -8.000000)">
            <g id="bell-pepper" transform="translate(55.932421, 69.161406) rotate(-15.000000) translate(-55.932421, -69.161406) translate(12.692776, 14.583941)">
                <path d="M43.7775182,8.72578845 C42.6068158,8.05418679 41.1909947,7.66758331 39.7464659,7.66758331 C38.8852378,7.66758331 38.1038231,7.80693672 37.1574186,8.07589195 L37.1574186,8.77643382 C37.1574186,8.77643382 37.2801357,8.77643382 37.2801357,8.77643382 C37.7221066,8.77643382 38.1514588,8.95542274 38.5454786,9.21116613 C41.4225483,11.0784389 41.2585049,15.0636948 41.2585049,15.9391363 L41.2585049,24.5048098 C42.2049094,24.4856212 42.3008117,24.4733531 42.8718091,24.4733531 C43.526721,24.4733531 44.7286547,24.4875086 44.7286547,24.512674 L44.7286547,12.6950014 C44.7286547,11.2492491 44.4557748,9.89566506 43.7775182,8.72578845 Z" id="Shape" fill="#33B57E" fill-rule="nonzero"></path>
                <path d="M28.0996965,91.858749 C27.4731767,89.5356679 26.8785192,87.0499554 26.2491602,84.4179689 C25.017257,79.2666112 23.6203639,73.4276089 21.6486878,67.5489711 C17.1277135,54.0738422 16.5658646,43.5801843 19.9511536,36.2696351 C19.7378971,36.730162 19.535682,37.1991821 19.3536569,37.6851889 C16.3087581,38.7371027 13.5963627,40.429476 11.883686,43.311229 C8.30974711,49.3241872 9.4665689,59.8650302 15.3222891,74.6402667 C17.0078355,78.8938487 18.4113534,82.913707 19.768813,86.801447 C22.4114899,94.3686833 24.501151,100.068647 26.9261549,103.719203 C28.084554,104.146071 29.3603073,104.090078 30.7994731,104.090078 L30.800104,104.090078 C31.5067527,103.77551 32.1963661,103.850063 32.8651587,103.628293 C30.5931569,100.354903 29.2278107,96.0396659 28.0996965,91.858749 Z" id="Shape" fill="#FFD347" fill-rule="nonzero"></path>
                <path d="M66.3221356,86.801447 C67.6795952,82.913707 69.0834285,78.8935341 70.768975,74.6402667 C76.6250107,59.8650302 77.781517,49.3241872 74.2078935,43.311229 C72.4952168,40.429476 69.7828215,38.7371027 66.7382382,37.6851889 C66.556844,37.2010695 66.3552598,36.7336222 66.1429497,36.2746682 C69.5257149,43.5852174 68.9629197,54.0773024 64.4435227,67.5492856 C62.4718466,73.4257215 61.0758999,79.2628364 59.8443122,84.4129358 C58.2281687,91.1695316 56.8322221,97.0044445 54.5993384,101.335096 C54.1680934,102.171845 53.7059325,102.93184 53.2191651,103.631753 C53.8898505,103.854781 54.5819876,104.01238 55.2911601,104.100773 C55.2914755,104.100773 55.2914755,104.100773 55.2914755,104.100773 C56.7312723,104.28102 58.007341,104.151419 59.1660556,103.723921 C61.5901131,100.073365 63.6797742,94.3683687 66.3221356,86.801447 Z" id="Shape" fill="#FFD347" fill-rule="nonzero"></path>
                <path d="M63.488916,50.0602752 C63.1822809,46.4474672 62.1863479,43.4502679 60.4872363,41.0969883 C57.2628361,36.6310732 51.3935508,34.3665016 43.0431083,34.3665016 C34.6920349,34.3665016 28.8227495,36.6310732 25.5986648,41.0966737 C23.8998687,43.4496388 22.9039357,46.4468381 22.5973006,50.0590169 C22.4875177,48.5711126 22.4670123,47.1621646 22.534207,45.831544 C22.2553331,51.2669562 23.4550586,58.019148 26.1488413,66.0487986 C28.1877121,72.126243 29.6104735,78.0737712 30.8650905,83.3207574 C31.4862473,85.9187705 32.0733336,88.3727118 32.6818717,90.6297337 C35.423921,100.790894 38.1360009,104.392377 43.0459475,104.392377 C49.8688931,104.392377 51.9153352,97.1651885 55.2280664,83.3154097 C56.4826834,78.0699963 57.5057466,71.9765089 59.9433692,66.0487986 C63.5116297,57.3705098 63.6542213,47.8224419 63.488916,50.0602752 Z" id="Shape" fill="#FFD347" fill-rule="nonzero"></path>
                <path d="M83.1072507,36.6282421 C79.0285627,29.765637 71.2563733,27.9810955 64.940385,27.1931039 C61.9532169,26.8206559 59.8124499,26.7105573 56.9804921,27.1581869 C54.8422489,26.1493688 52.4222925,25.4195722 49.7171529,24.9807505 L49.7171529,12.6950014 C49.7174684,5.69493039 44.0059172,0 36.9854885,0 C34.8844704,0 32.8014341,0.522182084 30.9609928,1.50960953 C30.1921969,1.92232212 29.7130007,2.72226732 29.7130007,3.59299022 L29.7130007,11.8013151 C29.7130007,12.6383793 30.1565489,13.4128445 30.8792865,13.8384544 C31.6029705,14.2643788 32.4966918,14.2763323 33.2317327,13.8730568 C35.0567161,12.8692718 35.9135276,12.9293542 36.0696844,13.0287576 C36.4283717,13.2593356 36.7094538,14.5849231 36.6274321,15.6447011 C36.6214382,15.7135913 36.618599,15.7821671 36.618599,15.8510574 L36.618599,24.9458335 C33.8169261,25.3802512 31.315579,26.1213723 29.1142421,27.1594451 C26.2813379,26.7108719 24.1405709,26.8212851 21.1521409,27.193733 C14.8364681,27.9817246 7.0639633,29.7662662 2.98464437,36.6288712 C-1.43727299,44.0690222 -0.420519073,55.6749909 6.09200587,72.109571 C7.74158894,76.272243 9.12901796,80.2452308 10.4707041,84.087673 C12.9890865,91.3000771 15.1642396,97.5288286 18.0690705,101.943784 C21.1470934,106.621717 24.9065276,108.916487 29.5189878,108.916487 C30.1272104,108.916487 30.750891,108.876537 31.3890831,108.796952 C31.389714,108.796952 31.390345,108.796637 31.3909759,108.796637 C33.1673772,108.575182 34.8680661,108.054258 36.4611804,107.251167 C38.2448374,108.430481 40.4007469,109.124417 43.046263,109.124417 C45.5450864,109.124417 47.7287571,108.502831 49.6256672,107.248336 C51.2197278,108.052685 52.9219941,108.574553 54.7006037,108.796637 C54.7012346,108.796637 54.7018655,108.796952 54.7018655,108.796952 C55.341004,108.876537 55.9640537,108.916487 56.5729073,108.916487 C61.1853674,108.916487 64.9451171,106.621403 68.02314,101.944098 C70.9282864,97.5291432 73.103124,91.3003917 75.6211909,84.0886167 C76.9631925,80.2461745 78.3506216,76.2725575 80.0002046,72.1098855 C86.5127296,55.6740472 87.529168,44.0680785 83.1072507,36.6282421 Z M71.1396501,82.5318221 C65.9621865,97.358333 62.9062463,105.055171 55.2911601,104.100773 C55.2911601,104.100773 55.2908446,104.100773 55.2905291,104.100773 C54.5813567,104.01238 53.8892195,103.854467 53.2185342,103.631753 C53.7053016,102.93184 54.1674624,102.171531 54.5987074,101.335096 C56.8315912,97.0047591 58.2272223,91.1695316 59.8436813,84.4129358 C61.075269,79.263151 62.4715311,73.426036 64.4428917,67.5492856 C69.6465392,52.0385903 69.6121532,40.4719426 64.3409955,33.1708305 C63.9848319,32.677274 63.6031155,32.2079393 63.2031018,31.7562203 C63.5687294,31.7945976 63.9460294,31.8373787 64.351406,31.8883387 C69.9178419,32.5825892 76.0145797,33.9754942 79.024777,39.0406604 C82.598716,45.0536185 81.4418942,55.5947761 75.586174,70.3703272 C73.900943,74.6239092 72.4971096,78.6440821 71.1396501,82.5318221 Z M30.800735,104.100773 L30.800104,104.100773 C23.1818631,105.055171 20.1287622,97.3577039 14.951614,82.5311929 C13.5941545,78.6434529 12.1903211,74.62328 10.5047747,70.3700126 C4.64905445,55.5947761 3.49223266,45.0539331 7.06617158,39.040975 C10.0766843,33.9758087 16.1734222,32.5829038 21.7401736,31.8883387 C22.1449193,31.8376933 22.5250584,31.7939684 22.8903705,31.754962 C22.489726,32.2069956 22.1073785,32.6766449 21.750584,33.1708305 C16.4791109,40.4719426 16.4447249,52.0382758 21.6486878,67.5492856 C23.6203639,73.4276089 25.017257,79.2666112 26.2491602,84.4182835 C26.8785192,87.0502699 27.4731767,89.5359825 28.0996965,91.8590636 C29.2278107,96.0396659 30.5931569,100.360565 32.8657896,103.633955 C32.1969971,103.855725 31.5073837,104.012694 30.800735,104.100773 Z M32.6815562,90.6294192 C32.0730181,88.3723972 31.4859318,85.918456 30.864775,83.3204428 C29.6098426,78.073142 28.1873966,72.1259285 26.1485258,66.048484 C21.4565677,52.0624975 21.2723343,41.9309068 25.601504,35.9352498 C28.8259042,31.4693347 34.6951895,29.2050777 43.0459475,29.2050777 C51.39639,29.2050777 57.2659908,31.4693347 60.4900755,35.9355644 C64.8192453,41.9312213 64.6353273,52.0624975 59.9433692,66.048484 C57.9051293,72.1240411 56.4829988,78.0696818 55.2283819,83.3150952 C51.9153352,97.1651885 49.8692086,104.392063 43.046263,104.392063 C38.1356854,104.392063 35.4236055,100.790579 32.6815562,90.6294192 Z M34.457642,5.13971872 C35.2687107,4.87076349 36.1239449,4.73172464 36.985173,4.73172464 C41.3894241,4.73172464 44.9721962,8.3039534 44.9721962,12.695316 L44.9721962,24.5129886 C44.3415753,24.4878232 43.700544,24.4736677 43.045632,24.4736677 C42.4746347,24.4736677 41.9153096,24.4859358 41.3626093,24.5051244 L41.3626093,15.9391363 C41.4212864,15.0636948 41.534855,10.9305922 38.6577852,9.06363397 C37.4725713,8.29451638 36.0677916,8.06551122 34.4573265,8.37536023 L34.4573265,5.13971872 L34.457642,5.13971872 Z" id="Shape" fill="#474A4F" fill-rule="nonzero"></path>
            </g>
            <g id="carrot" transform="translate(133.966828, 77.025159) rotate(25.000000) translate(-133.966828, -77.025159) translate(113.168012, 1.708257)">
                <g id="Group" transform="translate(10.601059, 48.323626)" fill-rule="nonzero">
                    <path d="M23.4495422,3.35622683 C23.417739,4.19169702 23.0535169,14.3249349 22.0286217,26.7833697 L12.4161116,26.7833697 C10.8433688,26.7833697 9.56859145,26.9830822 9.56859145,28.5517124 C9.56859145,30.1199651 10.8433688,31.3137096 12.4161116,31.3137096 L21.534158,31.3137096 C20.8212368,39.2418045 19.8678987,47.1698994 18.6097802,56.2305793 L12.4471575,56.2305793 C10.8744147,56.2305793 9.59963741,57.7040723 9.59963741,59.272325 C9.59963741,60.8405777 10.8744147,61.2902139 12.4471575,61.2902139 L18.0377017,61.4706725 C16.3335814,71.4117484 14.3405824,82.7308027 11.0675055,90.0038859 C7.64374205,78.8826565 4.73223695,60.3833909 3.05234773,46.4148427 L0.109039463,46.4148427 L7.58013569,46.4148427 C9.1528785,46.4148427 10.4272772,45.5291613 10.4272772,43.9609086 C10.4272772,42.3926559 9.15249989,41.5069745 7.58013569,41.5069745 L2.47004671,41.5069745 C1.6586871,33.5788796 0.869286827,19.6103315 0.484241224,14.3249349 L7.54606086,14.3249349 C9.11880367,14.3249349 10.393581,15.419767 10.393581,13.4313253 C10.393581,11.4428836 9.11880367,10.5496516 7.54606086,10.5496516 L0.141599858,10.5496516 C0.0545197313,8.66200995 0.0109796681,7.61852166 0.00075721849,7.35425183 C0.0318031766,5.17968866 2.33942652,2.7706804 6.09144414,1.39421211 C6.18988255,1.36438738 8.88860925,0.168755163 13.4451715,0.168755163 C17.2411078,0.168755163 20.6997033,1.42177168 20.8011705,1.45197395 C20.8019277,1.45235148 22.4852245,2.13567775 23.4495422,3.35622683 Z" id="Shape" fill="#F1844A"></path>
                    <path d="M11.0561472,90.0990231 C10.8891805,90.5622503 10.7206994,91.0190596 10.5499466,91.4675633 C10.721078,91.0205697 10.8891805,90.5622503 11.0561472,90.0990231 Z" id="Shape" fill="#EF8829"></path>
                </g>
                <g id="Group" transform="translate(5.679139, 5.662925)" fill-rule="nonzero">
                    <path d="M14.9270481,1.86159218 C15.4404422,1.86159218 15.8584268,2.27838346 15.8584268,2.79031187 L15.8584268,0.944198348 C15.8584268,0.432269935 15.4404422,0.0154786614 14.9270481,0.0154786614 C14.4140326,0.0154786614 13.9964266,0.432269935 13.9964266,0.944198348 L13.9964266,2.79031187 C13.9964266,2.27800593 14.4140326,1.86159218 14.9270481,1.86159218 Z" id="Shape" fill="#FFFFFF"></path>
                    <path d="M29.378563,13.6219771 C29.2498358,13.4898422 28.9742083,13.1727184 28.2877897,13.8552896 C24.9760947,17.1469591 23.2795466,21.8800318 21.3588619,26.1578053 C20.7988989,27.4047813 19.4877751,28.1666335 18.1452267,27.9170873 C16.7988922,27.6645208 15.78952,26.4922954 15.78952,25.1263979 L15.78952,23.2806619 L15.78952,0.944198348 C15.78952,0.432269935 15.3560124,0.0154786614 14.8426182,0.0154786614 C14.3296027,0.0154786614 13.8964737,0.432269935 13.8964737,0.944198348 L13.8964737,23.2806619 L13.8964737,25.1263979 C13.8964737,26.4922954 12.9715313,27.6645208 11.6251969,27.9170873 C10.2799982,28.167011 8.9684958,27.4304532 8.47100325,26.1578053 C6.70857721,21.649362 4.38921698,17.5093863 1.55343373,13.8537795 C1.351635,13.5936625 0.873830137,13.1727184 0.467961027,13.6242423 C0.440701161,13.6548221 0.422149308,13.6891772 0.397539707,13.7208895 C0.383152556,13.7016356 0.371415669,13.6820041 0.357028518,13.6623727 C4.66560173,19.4608302 7.64487788,26.3733739 9.05822619,33.8091719 C10.901296,33.4244705 12.8711999,33.2156973 14.9274267,33.2156973 C16.9832749,33.2156973 18.9524216,33.424093 20.7947342,33.8087943 C22.2088397,26.3726189 25.1881159,19.4589426 29.503504,13.6525569 C29.4872238,13.6744536 29.4720795,13.6967277 29.4561779,13.7186244 C29.4304324,13.6865345 29.4077159,13.6521794 29.378563,13.6219771 Z" id="Shape" fill="#33B57E"></path>
                </g>
                <path d="M39.1531179,13.4928624 C37.8760689,12.1775537 36.1098567,11.4764836 34.3046479,11.5780388 C32.4138733,11.6814815 30.6949873,12.6109563 29.4633714,14.1961977 C28.6853294,15.199668 27.9409837,16.2348507 27.2326058,17.2998581 L27.2326058,6.60712327 C27.2326058,2.9639749 24.2601446,0 20.6061868,0 C16.9526076,0 13.980525,2.9639749 13.980525,6.60712327 L13.980525,17.3002356 C13.2717685,16.2348507 12.5270441,15.198913 11.7482449,14.1950651 C10.5181434,12.6109563 8.79887885,11.6814815 6.90772568,11.5780388 C5.10440984,11.474596 3.33630467,12.1771762 2.05698403,13.4955051 C-0.370279842,16.0041809 -0.62697691,19.8693159 1.45423811,22.6958705 C5.40729724,28.0156222 8.08747208,34.4120846 9.27819816,41.3038642 C4.51415803,43.6150927 1.46711082,47.3764074 1.46711082,51.7051472 C1.46711082,51.7391247 1.46786804,51.7727248 1.46900387,51.8067023 C1.57539307,54.7736974 4.23512301,124.753858 18.1308395,149.142943 C18.6370401,150.03089 19.5824274,150.579816 20.6065654,150.579816 C21.631082,150.579816 22.5764693,150.031268 23.0826698,149.142943 C36.9783864,124.753858 39.6373591,54.7736974 39.7437483,51.8067023 C39.7448841,51.7731023 39.7456413,51.7395023 39.7456413,51.7055247 C39.7456413,47.3771624 36.6978369,43.6150927 31.9341754,41.3034867 C33.1252801,34.4117071 35.8062121,28.014112 39.765329,22.6864323 C41.8401077,19.870071 41.5837892,16.0049359 39.1531179,13.4928624 Z M32.6300592,74.0752107 L23.0175491,74.0752107 C21.4448062,74.0752107 20.1700289,75.3463486 20.1700289,76.9146013 C20.1700289,78.482854 21.4448062,79.7539918 23.0175491,79.7539918 L32.1355955,79.7539918 C31.4226743,87.5137091 30.4693362,96.1591078 29.2112177,104.727868 L23.048595,104.727868 C21.4758522,104.727868 20.2010749,105.999006 20.2010749,107.567259 C20.2010749,109.135511 21.4758522,110.406649 23.048595,110.406649 L28.3286795,110.406649 C26.4121595,122.053398 23.8947867,133.144426 20.6073226,141.169923 C15.8890942,129.650023 12.7557241,111.813697 10.7108555,95.0801318 L18.1819518,95.0801318 C19.7546946,95.0801318 21.0294719,93.808994 21.0294719,92.2407413 C21.0294719,90.6724886 19.7546946,89.4013507 18.1819518,89.4013507 L10.0516968,89.4013507 C9.01165725,79.9514392 8.31501624,71.1542741 7.86674289,64.4263417 L18.1482556,64.4263417 C19.7209984,64.4263417 20.9957757,63.1552039 20.9957757,61.5869512 C20.9957757,60.0186985 19.7209984,58.7475606 18.1482556,58.7475606 L7.5150149,58.7475606 C7.28254883,54.6710097 7.17956711,52.0868283 7.16290831,51.6609764 C7.19395426,49.4864132 9.50157761,47.1615938 13.2532166,45.7851255 C13.3520336,45.7553008 16.0507603,44.5577809 20.6073226,44.5577809 C24.4032589,44.5577809 27.8618543,45.7556783 27.9633216,45.7858805 C31.7134462,47.1627264 34.0199337,49.4871683 34.0513583,51.6609764 C34.0187979,52.4964466 33.6549544,61.6114905 32.6300592,74.0752107 Z M6.15353606,17.4414312 C6.55902656,16.9899073 7.04288918,17.4108514 7.24506651,17.6709684 C10.0808498,21.3265752 12.4127041,25.4665509 14.1751301,29.9749942 C14.6726227,31.2480197 16.0091133,31.9841999 17.354312,31.7342762 C18.7006464,31.4817097 19.6755652,30.3094843 19.6755652,28.9439643 L19.6755652,6.60712327 C19.6755652,6.09519485 20.0931712,5.67840358 20.6061868,5.67840358 C21.1195809,5.67840358 21.5375655,6.09519485 21.5375655,6.60712327 L21.5375655,28.9435868 C21.5375655,30.3091067 22.5124843,31.4817097 23.8588188,31.7338987 C25.2013672,31.9834449 26.4780375,31.2215927 27.0380006,29.9746166 C28.9586853,25.6968432 30.6548547,20.963393 33.9665498,17.672101 C34.653347,16.9895298 34.9285959,17.3066536 35.057323,17.4387885 C35.5533012,17.9510945 35.602899,18.744659 35.1826427,19.3154818 C30.8672545,25.1218675 27.8879784,32.0355438 26.4738728,39.4717193 C24.6315603,39.0870179 22.6624136,38.8786223 20.6065654,38.8786223 C18.5503386,38.8786223 16.5808133,39.0870179 14.7377435,39.4720968 C13.3243952,32.0362988 10.3458762,25.1237552 6.03730302,19.3252976 C5.60985318,18.7450365 5.67876007,17.9692158 6.15353606,17.4414312 Z" id="Shape" fill="#474A4F" fill-rule="nonzero"></path>
            </g>
        </g>
    </g>
</svg>